<svg width="73" height="35" viewBox="0 0 73 35" fill="none" xmlns="http://www.w3.org/2000/svg">
<g clip-path="url(#clip0_112_2323)">
<path d="M2.99472 22.5479H8.30355C10.1148 22.5479 11.6227 23.8422 11.6227 25.5917C11.6227 26.7878 10.9178 27.8947 9.81143 28.5642C10.4895 29.0283 10.9 29.796 10.9 30.76C10.9 32.9024 8.85673 34.7412 6.45661 34.7412H0.407227L2.99472 22.5479ZM5.34131 29.7424L4.91304 31.8223H5.67144C6.59045 31.8223 7.12579 31.3938 7.12579 30.7154C7.12579 30.0727 6.66183 29.7424 5.96588 29.7424H5.34131ZM6.26032 25.4757L5.85881 27.377H6.54583C7.39346 27.377 7.85743 26.9664 7.85743 26.3237C7.85743 25.7524 7.49161 25.4757 6.84027 25.4757H6.26032Z" fill="#9596FB"/>
<path d="M15.441 31.6437H18.555L17.8947 34.7412H10.8906L13.487 22.5479H17.3772L15.441 31.6437Z" fill="#9596FB"/>
<path d="M26.8804 33.304H23.0081L22.2854 34.7412H18.5469L25.2387 22.5479H29.1645L30.6724 34.7412H27.0053L26.8804 33.304ZM26.6038 30.1888L26.2915 26.6986L24.5427 30.1888H26.6038Z" fill="#9596FB"/>
<path d="M37.5865 22.2889C38.5233 22.2889 39.5048 22.4764 40.1115 22.7531L39.4334 25.9219C39.0676 25.6452 38.4162 25.4399 37.8809 25.4399C37.2385 25.4399 36.8102 25.7345 36.8102 26.2165C36.8102 27.3412 38.9873 28.0643 38.9873 30.6261C38.9873 33.2058 36.944 35 34.0978 35C33.0093 35 31.8315 34.7411 31.2783 34.3394L31.9564 31.1706C32.4382 31.5544 33.2323 31.849 33.7855 31.849C34.4904 31.849 35.0793 31.3848 35.0793 30.8136C35.0793 29.6888 32.9022 28.9658 32.9022 26.404C32.9022 23.9671 34.8384 22.2889 37.5865 22.2889Z" fill="#9596FB"/>
<path d="M41.129 22.5479H50.2031L49.5517 25.6453H46.9553L45.0192 34.7412H41.129L43.0652 25.6453H40.4688L41.129 22.5479Z" fill="#9596FB"/>
<path d="M49.5339 30.9564C50.6402 30.9564 51.4165 31.6794 51.4165 32.7685C51.4165 34.0271 50.3993 35 49.1502 35C48.0438 35 47.2676 34.277 47.2676 33.188C47.2676 31.9205 48.2847 30.9564 49.5339 30.9564Z" fill="#9596FB"/>
<path d="M52.8888 22.5479H61.9628L61.3026 25.6453H58.7062L56.7789 34.7412H52.8888L54.8249 25.6453H52.2285L52.8888 22.5479Z" fill="#9596FB"/>
<path d="M67.3697 34.7412H63.1851L62.5605 22.5479H66.2277L66.3793 29.4479L69.3862 22.5479H72.9997L67.3697 34.7412Z" fill="#9596FB"/>
<path fill-rule="evenodd" clip-rule="evenodd" d="M37.3639 0L35.4902 3.90972L41.4682 8.56032L37.3639 0ZM35.5437 8.63173L36.5609 10.7562L40.228 10.4259L39.6391 9.20301L33.6611 4.55241L30.4223 11.3185L34.4284 10.9526L35.5437 8.63173ZM41.3968 11.9077L44.6446 18.6917H28.7627L31.5822 12.8003L35.5883 12.4343L34.2321 15.255H39.1573L37.7119 12.2379L41.3968 11.9077Z" fill="#9596FB"/>
</g>
<defs>
<clipPath id="clip0_112_2323">
<rect width="72.5926" height="35" fill="white" transform="translate(0.407227)"/>
</clipPath>
</defs>
</svg>
