<svg width="192" height="35" viewBox="0 0 192 35" fill="none" xmlns="http://www.w3.org/2000/svg">
<g clip-path="url(#clip0_112_2357)">
<path d="M128.949 1.16431C123.252 1.16431 118.172 3.62486 114.869 7.46725C113.894 6.21492 112.702 4.89946 111.4 3.97345C108.667 1.93311 105.123 1.31221 101.336 1.21024C94.9247 1.0376 89.7969 4.50119 87.4355 8.39545C85.4407 4.41561 83.6512 2.33736 76.7105 1.9921H59.8914L59.8952 9.00214C59.8952 9.00214 60.695 9.25757 60.9655 9.55435C61.1911 9.80195 61.3414 10.4857 61.3414 10.4857L61.3019 26.0888C61.3019 26.0888 60.862 25.7698 60.6867 25.5654C60.3603 25.185 59.8973 24.2858 59.8973 24.2858L51.2798 1.98462L40.353 1.9921L30.8585 26.813V21.5002H24.0258C23.4877 22.9837 21.977 23.9857 20.1549 23.9857C19.1947 23.9857 18.168 23.7592 17.3362 23.2593C16.2521 22.6079 15.442 21.8343 14.7748 20.4598C14.2499 19.1879 13.8482 17.6304 13.8018 16.2525C13.9617 13.5274 14.7896 12.556 16.3054 11.4321C16.6415 11.1829 17.5803 10.9837 17.851 10.9824C18.4465 10.9796 18.9428 11.3408 19.2118 11.8732C19.603 12.6476 19.0303 13.5857 18.4641 14.253L23.9884 18.0587L32.5205 9.13138C29.5439 4.38732 24.1047 1.2113 17.8884 1.2113C8.47687 1.2113 0.847656 8.4912 0.847656 17.4712C0.847656 26.4512 8.23273 33.2422 17.8884 33.9747L19.1092 34.0238H32.0975V34.0174H62.3369V34.0153L73.7059 33.9993V33.9811H75.4843V27.3011C75.4843 27.3011 74.5316 27.1024 74.1396 26.8354C73.7279 26.555 73.6888 26.1134 73.6888 26.1134C73.6815 25.943 73.7158 25.8125 73.8053 25.7011C73.893 25.5918 74.0983 25.5176 74.1759 25.5013C75.3499 25.2557 76.5472 24.9198 77.7455 24.4888C80.943 23.3388 83.6337 21.7027 85.5439 19.8948C86.822 27.4467 93.4588 32.9574 101.482 33.8775C102.006 33.9376 102.458 33.983 102.948 34.0003C103.078 34.0049 103.339 33.995 103.339 33.995H114.686L114.652 28.4108C117.603 31.6868 123.352 34.827 129.156 34.827C133.898 34.827 138.151 32.7507 141.149 30.1832L141.125 34.0452H155.454L155.527 28.1367L159.263 28.1855V28.1203L164.276 28.1641V34.0238H179.558V26.2597C179.558 26.2597 178.906 26.2179 178.65 26.0397C178.305 25.7987 177.948 24.9897 177.948 24.9897L175.8 10.725C175.8 10.725 175.864 9.77074 176.141 9.41445C176.37 9.1213 177.118 8.87718 177.118 8.87718V1.99211H175.75H173.552H161.883V2.18758L160.809 5.80101L159.263 2.16408V1.99211H159.19L159.149 1.89491L159.146 1.99211H144.445V9.21898L143.441 7.85179C140.683 3.83126 135.843 1.16431 130.33 1.16431C130.105 1.16431 129.882 1.16835 129.659 1.17712C129.423 1.16861 129.187 1.16431 128.949 1.16431ZM30.6694 28.225L30.6684 28.2955H30.6043C30.6262 28.2721 30.6477 28.2485 30.6694 28.225Z" fill="#6263D5"/>
<path d="M17.8768 4.26636C10.1186 4.31519 3.78223 9.96637 3.78223 17.3589C3.78223 24.7515 10.777 31.1016 19.244 30.9104L27.4714 30.9336V24.4563H25.9175C25.4293 25.6776 23.1491 26.8722 21.4958 26.8722C20.6246 26.8722 18.4312 26.7537 17.6199 26.4695C16.1874 25.9678 14.1434 25.2476 12.3662 22.2606C11.8899 21.2135 10.5489 18.6619 10.8485 14.9396C10.9936 12.6963 12.4186 9.89582 14.9757 8.62762C16.0906 8.07463 17.2131 7.9839 19.1839 8.16274C20.5988 8.29114 22.0047 9.286 22.4955 10.48C22.8751 11.4035 22.7661 12.5288 22.3191 13.1698C22.2873 13.2155 22.2866 13.256 22.2932 13.2997C22.2982 13.3329 22.3413 13.3883 22.3413 13.3883L23.1201 13.9967C23.1201 13.9967 23.3418 14.1507 23.6008 14.1438C23.7512 14.1398 24.02 13.9766 24.02 13.9766L28.4675 9.3093C25.718 5.59919 20.8316 4.26636 17.8768 4.26636Z" fill="#9596FB"/>
<path d="M129.022 4.14111C120.797 4.14111 114.129 10.3277 114.129 17.9593C114.129 25.591 120.797 31.7775 129.022 31.7775C137.247 31.7775 143.914 25.591 143.914 17.9593C143.914 10.3277 137.247 4.14111 129.022 4.14111ZM129.119 8.43707C133.353 8.43707 135.622 11.4669 136.542 15.0783C136.805 16.1121 136.698 19.5493 136.541 20.6938C136.063 24.184 133.21 27.5852 129.071 27.4805C125.037 27.3785 122.339 25.5005 121.503 20.4497C121.258 18.9722 121.254 17.1973 121.453 15.7131C122.031 11.4093 124.885 8.43707 129.119 8.43707Z" fill="#9596FB"/>
<path d="M42.3969 4.99878C42.3969 4.99878 35.857 22.6952 34.6851 25.9178C33.5132 29.1405 32.1953 29.0431 32.1953 29.0431L32.2925 30.9956L40.1966 30.9935L40.203 29.1179C40.203 29.1179 39.6958 29.0918 39.3239 28.7505C38.6026 28.0883 39.059 26.7563 39.059 26.7563L40.8866 22.0811L49.0032 22.0982C49.0032 22.0982 50.5853 26.0485 50.9728 27.3523C51.4783 29.0534 49.8993 29.0837 49.8993 29.0837V30.9903L59.8947 30.985L59.8883 29.0997C59.8883 29.0997 59.2931 29.0089 58.66 28.4567C57.9419 27.8303 57.453 26.5384 57.453 26.5384L49.267 5.01694L42.3969 4.99878ZM44.7435 10.4398L47.4533 17.9839L42.2046 18.0074L44.7435 10.4398Z" fill="#9596FB"/>
<path d="M63.0884 4.97107L63.0499 7.14041C63.0499 7.14041 63.6852 7.32245 64.2932 7.99704C64.6156 8.3547 64.416 12.8943 64.416 12.8943L64.4054 27.4261C64.4054 27.4261 64.6124 27.9988 63.9172 28.5743C63.6548 28.7915 63.4224 29.0218 63.0168 29.0571L62.9688 30.9904L72.2325 31.0128L72.2549 29.0464C72.2549 29.0464 71.9273 28.9171 71.4133 28.4536C71.1232 28.1919 70.9444 27.8154 70.9486 27.4399C70.9564 26.1272 70.9871 24.8658 70.9807 23.584C74.2257 22.8025 77.027 21.4771 78.1189 21.075C82.2234 19.4372 85.4084 16.8368 85.2219 12.1979C85.1866 8.91137 83.5196 6.2175 79.9486 5.60873C78.3207 5.13838 77.5733 5.0562 76.9312 5.0202L63.0884 4.97107ZM73.683 8.65537C74.6822 8.63618 75.8591 8.86513 76.7652 9.32148C77.8944 10.0711 78.5814 10.8477 78.5814 12.4906C78.628 13.2629 78.406 13.927 78.0345 14.6023C77.6477 15.2479 76.4775 16.4875 75.7386 17.1966C73.5784 18.7409 72.8054 19.1936 71.0893 19.9835L71.0619 8.97437C71.9764 8.80187 72.7967 8.66125 73.683 8.65537Z" fill="#9596FB"/>
<path d="M102.251 4.28369C94.4926 4.33252 88.1562 9.9837 88.1562 17.3763C88.1562 24.7688 95.151 31.1189 103.618 30.9278L111.845 30.9509V24.4736H110.292C109.803 25.6949 107.523 26.8895 105.87 26.8895C104.999 26.8895 102.805 26.7711 101.994 26.4869C100.561 25.9852 98.5174 25.2649 96.7402 22.2779C96.2639 21.2308 94.9229 18.6792 95.2225 14.957C95.3676 12.7136 96.7926 9.91315 99.3497 8.64495C100.465 8.09197 101.587 8.00123 103.558 8.18008C104.973 8.30847 106.379 9.30333 106.87 10.4974C107.249 11.4208 107.14 12.5462 106.693 13.1871C106.661 13.2329 106.661 13.2734 106.667 13.317C106.672 13.3503 106.715 13.4056 106.715 13.4056L107.494 14.014C107.494 14.014 107.716 14.168 107.975 14.1611C108.125 14.1571 108.394 13.994 108.394 13.994L112.842 9.32663C110.092 5.61653 105.206 4.28369 102.251 4.28369Z" fill="#9596FB"/>
<path d="M147.636 5.02234L147.645 6.8862C147.645 6.8862 148.46 7.10561 148.784 7.36151C149.154 7.65407 149.06 8.17328 149.06 8.17328C149.06 8.17328 146.104 26.5457 146.04 26.8867C145.971 27.2535 145.873 28.1106 145.357 28.5871C144.844 29.0609 144.253 29.1564 144.253 29.1564L144.244 30.9946H152.522V29.2771C152.522 29.2771 151.848 29.225 151.399 28.7762C150.951 28.3273 151.08 27.0939 151.08 27.0939L153.117 13.2137L157.26 25.1595L162.307 25.2289L166.406 12.3646L168.694 27.1622C168.694 27.1622 168.97 28.2747 168.375 28.8456C167.917 29.2849 167.253 29.3465 167.253 29.3465V31.0641H176.843L176.834 29.2258C176.834 29.2258 176.62 29.2993 176.075 28.8627C175.755 28.6059 175.6 27.4607 175.531 27.0939C175.467 26.7529 172.884 8.2662 172.884 8.2662C172.884 8.2662 172.839 7.50286 173.257 7.11264C173.559 6.83139 174.177 6.5647 174.177 6.5647L174.162 5.04263L164.206 5.03088L160.563 15.5251L157.088 5.03088L147.636 5.02234Z" fill="#9596FB"/>
<path d="M185.922 1.05322C183.288 1.05322 181.153 3.18804 181.153 5.82146C181.153 8.45489 183.288 10.5897 185.922 10.5897C188.555 10.5897 190.69 8.45489 190.69 5.82146C190.69 3.18804 188.555 1.05322 185.922 1.05322ZM185.922 1.69428C188.201 1.69428 190.049 3.54209 190.049 5.82146C190.049 8.10084 188.201 9.94865 185.922 9.94865C183.642 9.94865 181.794 8.10084 181.794 5.82146C181.794 3.54209 183.642 1.69428 185.922 1.69428Z" fill="#6263D5"/>
<path d="M183.467 2.94165V8.58664H184.658V6.62985H186.24L187.549 8.61121L188.886 8.60266L187.289 6.50275C187.945 6.23487 188.409 5.57417 188.409 4.80017C188.409 3.80229 187.637 2.99075 186.678 2.96942V2.94592H184.658V2.94165H183.467ZM184.658 4.08133L186.639 4.09201C187.042 4.16035 187.309 4.20172 187.298 4.80643C187.286 5.45353 186.788 5.53976 186.639 5.54465L184.658 5.56815V4.08133Z" fill="#6263D5"/>
</g>
<defs>
<clipPath id="clip0_112_2357">
<rect width="191.133" height="35" fill="white" transform="translate(0.164062)"/>
</clipPath>
</defs>
</svg>
