<svg width="36" height="35" viewBox="0 0 36 35" fill="none" xmlns="http://www.w3.org/2000/svg">
<g clip-path="url(#clip0_112_2337)">
<path d="M17.5545 0C7.90386 0 0.0537109 7.84973 0.0537109 17.5015C0.0537109 27.1485 7.90386 35 17.5545 35C27.2019 35 35.0537 27.1485 35.0537 17.5015C35.0537 7.84973 27.2019 0 17.5545 0ZM17.5555 2.42863C25.8805 2.42863 32.628 9.17598 32.628 17.5006C32.628 25.8252 25.8805 32.5726 17.5555 32.5726C9.23055 32.5726 2.4829 25.8252 2.4829 17.5006C2.4829 9.17598 9.23055 2.42863 17.5555 2.42863Z" fill="#9596FB"/>
<path d="M16.2589 16.8522H10.1423L11.5444 14.6599H15.3444L16.7322 12.4756H8.25421L6.87282 14.6599H8.90747L6.13672 19.0381H17.5256L21.8514 12.1697L23.416 14.6567H22.0665L20.6867 16.8522H24.8022L26.1868 19.0381H28.8126L21.8514 8.0177L16.2589 16.8522ZM11.0138 8.09895L9.6372 10.2833L18.6298 10.2801L20.008 8.09895L11.0138 8.09895Z" fill="#9596FB"/>
<path d="M29.0625 20.3154V20.3935H29.2425V20.7759H29.3318V20.3935H29.5118V20.3154H29.0625Z" fill="#9596FB"/>
<path d="M30.0522 20.3154L29.8753 20.5895L29.6953 20.3154H29.6172V20.7743H29.6953V20.4907L29.6873 20.4413L29.7144 20.4875L29.861 20.7185H29.8769L30.0235 20.4907L30.0442 20.4413V20.4907V20.7743H30.1239V20.3154H30.0522Z" fill="#9596FB"/>
<path d="M9.18814 23.88C9.18814 24.1588 9.09095 24.401 8.89816 24.5953C8.70218 24.7897 8.46319 24.8885 8.18595 24.8885H7.00532C6.72171 24.8885 6.48431 24.7929 6.29471 24.6049C6.10829 24.4169 6.0127 24.1843 6.0127 23.8975V23.4291H6.74083L6.85236 23.8624C6.90016 24.0441 7.02285 24.1349 7.22201 24.1349H8.02503C8.127 24.1349 8.20667 24.0967 8.2704 24.0266C8.33094 23.9517 8.36122 23.8561 8.36122 23.7461V23.2299C8.36122 22.9782 8.25128 22.8476 8.02503 22.8476H7.01488C6.74083 22.8476 6.50502 22.752 6.30586 22.5592C6.11307 22.3584 6.0127 22.1195 6.0127 21.839V21.1603C6.0127 20.8879 6.11307 20.6521 6.30586 20.4545C6.50502 20.257 6.74083 20.1614 7.01488 20.1614H8.18595C8.46319 20.1614 8.699 20.2554 8.89019 20.4402C9.08298 20.6282 9.1738 20.864 9.1738 21.1476V21.5714H8.45044L8.3421 21.1874C8.28474 21.0026 8.15887 20.9134 7.97405 20.9134H7.18377C7.07861 20.9134 6.99735 20.9516 6.93522 21.0265C6.87148 21.0982 6.8428 21.1906 6.8428 21.3053V21.7036C6.8428 21.9506 6.95593 22.0748 7.18377 22.0748H8.18595C8.46 22.0748 8.699 22.1736 8.89179 22.3744C9.09095 22.5735 9.18814 22.8061 9.18814 23.0802V23.88Z" fill="#9596FB"/>
<path d="M13.3189 22.1502C13.3189 22.4258 13.2169 22.6632 13.0209 22.8592C12.8218 23.0568 12.5812 23.1555 12.3056 23.1555H11.0054V24.889H10.1689V20.1619H12.3056C12.5812 20.1619 12.8218 20.2606 13.0209 20.455C13.2169 20.6494 13.3189 20.8852 13.3189 21.1576V22.1502ZM12.1414 20.925H11.0054V22.3908H12.1414L12.3836 22.2809C12.4458 22.2076 12.476 22.1168 12.476 22.0005V21.3122C12.476 21.1975 12.4458 21.1098 12.3836 21.035L12.1414 20.925Z" fill="#9596FB"/>
<path d="M20.7354 24.8891L19.9675 23.041H19.174V24.8891H18.3359V20.162H20.4279C20.7084 20.162 20.9442 20.2608 21.1386 20.4535C21.3329 20.6511 21.4333 20.8885 21.4333 21.1578V21.9815C21.4333 22.1965 21.3728 22.3909 21.2565 22.5614C21.1338 22.7335 20.9808 22.8561 20.7928 22.9342L21.6245 24.8891H20.7354ZM20.2702 20.9251H19.174V22.2762H20.2702L20.5012 22.1711C20.565 22.0994 20.5936 22.0085 20.5936 21.8938V21.3107C20.5936 21.2008 20.565 21.11 20.5012 21.0335L20.2702 20.9251Z" fill="#9596FB"/>
<path d="M25.2099 20.9242H23.9974V24.8881H23.1625V20.9242H21.958V20.1626H25.2099V20.9242Z" fill="#9596FB"/>
<path d="M28.9986 23.88C28.9986 24.1588 28.8998 24.401 28.7086 24.5953C28.5094 24.7897 28.272 24.8885 27.9916 24.8885H26.811C26.5306 24.8885 26.2948 24.7929 26.102 24.6049C25.9155 24.4169 25.8184 24.1843 25.8184 23.8975V23.4291H26.5481L26.6564 23.8624C26.7074 24.0441 26.8317 24.1349 27.0293 24.1349H27.8323C27.9327 24.1349 28.0155 24.0967 28.0792 24.0266C28.1398 23.9517 28.1653 23.8561 28.1653 23.7461V23.2299C28.1653 22.9782 28.0569 22.8476 27.8323 22.8476H26.8253C26.5481 22.8476 26.3091 22.752 26.1147 22.5592C25.9203 22.3584 25.8184 22.1195 25.8184 21.839V21.1603C25.8184 20.8879 25.9203 20.6521 26.1147 20.4545C26.3091 20.257 26.5481 20.1614 26.8253 20.1614H27.9916C28.272 20.1614 28.5063 20.2554 28.6974 20.4402C28.8871 20.6282 28.9842 20.864 28.9842 21.1476V21.5714H28.2593L28.1478 21.1874C28.0904 21.0026 27.9677 20.9134 27.7813 20.9134H26.9878C26.8859 20.9134 26.7998 20.9516 26.7425 21.0265C26.6787 21.0982 26.6501 21.1906 26.6501 21.3053V21.7036C26.6501 21.9506 26.7632 22.0748 26.9878 22.0748H27.9916C28.2689 22.0748 28.5031 22.1736 28.6974 22.3744C28.8998 22.5735 28.9986 22.8061 28.9986 23.0802V23.88Z" fill="#9596FB"/>
<path d="M16.1488 20.9242H15.3458L15.1004 21.0341C15.043 21.109 15.0112 21.1998 15.0112 21.3129V23.7346C15.0112 23.8461 15.043 23.9354 15.1004 24.0102L15.3458 24.1281H16.1488L16.391 24.0102C16.4547 23.9354 16.4866 23.8461 16.4866 23.7346V21.3129C16.4866 21.1998 16.4547 21.109 16.391 21.0341L16.1488 20.9242ZM17.3199 23.8732C17.3199 24.16 17.2227 24.399 17.0267 24.595C16.826 24.7877 16.5933 24.8881 16.3097 24.8881H15.1801C14.9012 24.8881 14.6591 24.7877 14.4663 24.595C14.2719 24.399 14.1699 24.16 14.1699 23.8732V21.1552C14.1699 20.8875 14.2719 20.6485 14.4663 20.4542C14.6591 20.2582 14.9012 20.1626 15.1801 20.1626H16.3097C16.5933 20.1626 16.826 20.2582 17.0267 20.451C17.2227 20.6422 17.3199 20.8827 17.3199 21.1552V23.8732Z" fill="#9596FB"/>
</g>
<defs>
<clipPath id="clip0_112_2337">
<rect width="35" height="35" fill="white" transform="translate(0.0537109)"/>
</clipPath>
</defs>
</svg>
