<svg width="56" height="56" viewBox="0 0 56 56" fill="none" xmlns="http://www.w3.org/2000/svg">
<path d="M28 56C12.536 56 1.6439e-06 43.464 3.67176e-06 28V28C5.69961e-06 12.536 12.536 4.82282e-06 28 6.85067e-06V6.85067e-06C43.464 8.87853e-06 56 12.536 56 28V28C56 43.464 43.464 56 28 56V56Z" fill="#F07472"/>
<g clip-path="url(#clip0_138_5183)">
<path d="M21.9297 23.6797C22.2053 23.6797 22.4696 23.7892 22.6644 23.984C22.8593 24.1789 22.9688 24.4432 22.9688 24.7188V37.1875C22.9688 37.4631 22.8593 37.7274 22.6644 37.9222C22.4696 38.1171 22.2053 38.2266 21.9297 38.2266C21.6541 38.2266 21.3898 38.1171 21.195 37.9222C21.0001 37.7274 20.8906 37.4631 20.8906 37.1875V24.7188C20.8906 24.4432 21.0001 24.1789 21.195 23.984C21.3898 23.7892 21.6541 23.6797 21.9297 23.6797ZM27.125 23.6797C27.4006 23.6797 27.6649 23.7892 27.8597 23.984C28.0546 24.1789 28.1641 24.4432 28.1641 24.7188V37.1875C28.1641 37.4631 28.0546 37.7274 27.8597 37.9222C27.6649 38.1171 27.4006 38.2266 27.125 38.2266C26.8494 38.2266 26.5851 38.1171 26.3903 37.9222C26.1954 37.7274 26.0859 37.4631 26.0859 37.1875V24.7188C26.0859 24.4432 26.1954 24.1789 26.3903 23.984C26.5851 23.7892 26.8494 23.6797 27.125 23.6797ZM33.3594 24.7188C33.3594 24.4432 33.2499 24.1789 33.055 23.984C32.8602 23.7892 32.5959 23.6797 32.3203 23.6797C32.0447 23.6797 31.7804 23.7892 31.5856 23.984C31.3907 24.1789 31.2812 24.4432 31.2812 24.7188V37.1875C31.2812 37.4631 31.3907 37.7274 31.5856 37.9222C31.7804 38.1171 32.0447 38.2266 32.3203 38.2266C32.5959 38.2266 32.8602 38.1171 33.055 37.9222C33.2499 37.7274 33.3594 37.4631 33.3594 37.1875V24.7188Z" fill="#F1F2F6"/>
<path fill-rule="evenodd" clip-rule="evenodd" d="M40.6328 18.4844C40.6328 19.0355 40.4139 19.5641 40.0241 19.9538C39.6344 20.3436 39.1058 20.5625 38.5547 20.5625H37.5156V39.2656C37.5156 40.3679 37.0777 41.4251 36.2983 42.2045C35.5188 42.984 34.4617 43.4219 33.3594 43.4219H20.8906C19.7883 43.4219 18.7312 42.984 17.9517 42.2045C17.1723 41.4251 16.7344 40.3679 16.7344 39.2656V20.5625H15.6953C15.1442 20.5625 14.6156 20.3436 14.2259 19.9538C13.8361 19.5641 13.6172 19.0355 13.6172 18.4844V16.4062C13.6172 15.8551 13.8361 15.3265 14.2259 14.9368C14.6156 14.5471 15.1442 14.3281 15.6953 14.3281H22.9688C22.9688 13.777 23.1877 13.2484 23.5774 12.8587C23.9671 12.4689 24.4957 12.25 25.0469 12.25H29.2031C29.7543 12.25 30.2829 12.4689 30.6726 12.8587C31.0623 13.2484 31.2812 13.777 31.2812 14.3281H38.5547C39.1058 14.3281 39.6344 14.5471 40.0241 14.9368C40.4139 15.3265 40.6328 15.8551 40.6328 16.4062V18.4844ZM19.0577 20.5625L18.8125 20.6851V39.2656C18.8125 39.8168 19.0314 40.3454 19.4212 40.7351C19.8109 41.1248 20.3395 41.3438 20.8906 41.3438H33.3594C33.9105 41.3438 34.4391 41.1248 34.8288 40.7351C35.2186 40.3454 35.4375 39.8168 35.4375 39.2656V20.6851L35.1923 20.5625H19.0577ZM15.6953 18.4844V16.4062H38.5547V18.4844H15.6953Z" fill="#F5F5F5"/>
</g>
<defs>
<clipPath id="clip0_138_5183">
<rect width="33.25" height="33.25" fill="white" transform="translate(10.5 12.25)"/>
</clipPath>
</defs>
</svg>
