<svg width="64" height="64" viewBox="0 0 64 64" fill="none" xmlns="http://www.w3.org/2000/svg">
<path d="M64 32C64 49.6731 49.6731 64 32 64C14.3269 64 0 49.6731 0 32C0 14.3269 14.3269 0 32 0C49.6731 0 64 14.3269 64 32Z" fill="#F5F5F5"/>
<path fill-rule="evenodd" clip-rule="evenodd" d="M17.3357 24.3357C17.4418 24.2293 17.5679 24.1448 17.7067 24.0872C17.8455 24.0296 17.9943 24 18.1446 24C18.2949 24 18.4437 24.0296 18.5825 24.0872C18.7213 24.1448 18.8474 24.2293 18.9535 24.3357L31.8554 37.2398L44.7572 24.3357C44.8635 24.2294 44.9896 24.1452 45.1284 24.0877C45.2672 24.0302 45.4159 24.0006 45.5662 24.0006C45.7164 24.0006 45.8652 24.0302 46.004 24.0877C46.1428 24.1452 46.2689 24.2294 46.3751 24.3357C46.4813 24.4419 46.5656 24.568 46.6231 24.7068C46.6806 24.8456 46.7102 24.9944 46.7102 25.1446C46.7102 25.2948 46.6806 25.4436 46.6231 25.5824C46.5656 25.7212 46.4813 25.8473 46.3751 25.9535L32.6643 39.6643C32.5582 39.7707 32.4321 39.8552 32.2933 39.9128C32.1545 39.9704 32.0057 40 31.8554 40C31.7051 40 31.5563 39.9704 31.4175 39.9128C31.2787 39.8552 31.1526 39.7707 31.0465 39.6643L17.3357 25.9535C17.2293 25.8474 17.1448 25.7213 17.0872 25.5825C17.0296 25.4437 17 25.2949 17 25.1446C17 24.9943 17.0296 24.8455 17.0872 24.7067C17.1448 24.5679 17.2293 24.4418 17.3357 24.3357Z" fill="#AAAAAA"/>
</svg>
