<svg width="64" height="64" viewBox="0 0 64 64" fill="none" xmlns="http://www.w3.org/2000/svg">
<path d="M0 32C0 14.3269 14.3269 0 32 0V0C49.6731 0 64 14.3269 64 32V32C64 49.6731 49.6731 64 32 64V64C14.3269 64 0 49.6731 0 32V32Z" fill="url(#paint0_linear_138_5207)"/>
<path fill-rule="evenodd" clip-rule="evenodd" d="M46.3743 39.6643C46.2682 39.7707 46.1421 39.8552 46.0033 39.9128C45.8645 39.9704 45.7156 40 45.5654 40C45.4151 40 45.2663 39.9704 45.1274 39.9128C44.9886 39.8552 44.8626 39.7707 44.7564 39.6643L31.8546 26.7602L18.9527 39.6643C18.8465 39.7706 18.7204 39.8548 18.5816 39.9123C18.4428 39.9698 18.294 39.9994 18.1438 39.9994C17.9935 39.9994 17.8448 39.9698 17.706 39.9123C17.5672 39.8548 17.4411 39.7706 17.3348 39.6643C17.2286 39.5581 17.1443 39.432 17.0869 39.2932C17.0294 39.1544 16.9998 39.0056 16.9998 38.8554C16.9998 38.7052 17.0294 38.5564 17.0869 38.4176C17.1443 38.2788 17.2286 38.1527 17.3348 38.0465L31.0456 24.3357C31.1518 24.2293 31.2779 24.1448 31.4167 24.0872C31.5555 24.0296 31.7043 24 31.8546 24C32.0049 24 32.1537 24.0296 32.2925 24.0872C32.4313 24.1448 32.5574 24.2293 32.6635 24.3357L46.3743 38.0465C46.4807 38.1526 46.5651 38.2787 46.6227 38.4175C46.6803 38.5563 46.71 38.7051 46.71 38.8554C46.71 39.0057 46.6803 39.1545 46.6227 39.2933C46.5651 39.4321 46.4807 39.5582 46.3743 39.6643Z" fill="#F5F5F5"/>
<defs>
<linearGradient id="paint0_linear_138_5207" x1="32" y1="0" x2="32" y2="64" gradientUnits="userSpaceOnUse">
<stop stop-color="#9969C4"/>
<stop offset="1" stop-color="#4E5DB6"/>
</linearGradient>
</defs>
</svg>
