<svg width="56" height="56" viewBox="0 0 56 56" fill="none" xmlns="http://www.w3.org/2000/svg">
<path d="M28 56C12.536 56 1.6439e-06 43.464 3.67176e-06 28V28C5.69961e-06 12.536 12.536 4.82282e-06 28 6.85067e-06V6.85067e-06C43.464 8.87853e-06 56 12.536 56 28V28C56 43.464 43.464 56 28 56V56Z" fill="#F5F5F5"/>
<g clip-path="url(#clip0_138_5185)">
<path d="M37.1 11.1997H22.4C21.2861 11.1997 20.2178 11.6422 19.4302 12.4299C18.6425 13.2175 18.2 14.2858 18.2 15.3997C17.0861 15.3997 16.0178 15.8422 15.2302 16.6299C14.4425 17.4175 14 18.4858 14 19.5997V40.5997C14 41.7136 14.4425 42.7819 15.2302 43.5696C16.0178 44.3572 17.0861 44.7997 18.2 44.7997H32.9C34.0139 44.7997 35.0822 44.3572 35.8698 43.5696C36.6575 42.7819 37.1 41.7136 37.1 40.5997C38.2139 40.5997 39.2822 40.1572 40.0698 39.3696C40.8575 38.5819 41.3 37.5136 41.3 36.3997V15.3997C41.3 14.2858 40.8575 13.2175 40.0698 12.4299C39.2822 11.6422 38.2139 11.1997 37.1 11.1997ZM37.1 38.4997V19.5997C37.1 18.4858 36.6575 17.4175 35.8698 16.6299C35.0822 15.8422 34.0139 15.3997 32.9 15.3997H20.3C20.3 14.8428 20.5212 14.3086 20.9151 13.9148C21.3089 13.521 21.843 13.2997 22.4 13.2997H37.1C37.657 13.2997 38.1911 13.521 38.5849 13.9148C38.9787 14.3086 39.2 14.8428 39.2 15.3997V36.3997C39.2 36.9567 38.9787 37.4908 38.5849 37.8846C38.1911 38.2785 37.657 38.4997 37.1 38.4997ZM16.1 19.5997C16.1 19.0428 16.3212 18.5086 16.7151 18.1148C17.1089 17.721 17.643 17.4997 18.2 17.4997H32.9C33.457 17.4997 33.9911 17.721 34.3849 18.1148C34.7787 18.5086 35 19.0428 35 19.5997V40.5997C35 41.1567 34.7787 41.6908 34.3849 42.0846C33.9911 42.4785 33.457 42.6997 32.9 42.6997H18.2C17.643 42.6997 17.1089 42.4785 16.7151 42.0846C16.3212 41.6908 16.1 41.1567 16.1 40.5997V19.5997Z" fill="#AAAAAA"/>
</g>
<defs>
<clipPath id="clip0_138_5185">
<rect width="33.6" height="33.6" fill="white" transform="translate(11.2002 11.1997)"/>
</clipPath>
</defs>
</svg>
