<svg width="56" height="56" viewBox="0 0 56 56" fill="none" xmlns="http://www.w3.org/2000/svg">
<path d="M28 56C12.536 56 1.6439e-06 43.464 3.67176e-06 28V28C5.69961e-06 12.536 12.536 4.82282e-06 28 6.85067e-06V6.85067e-06C43.464 8.87853e-06 56 12.536 56 28V28C56 43.464 43.464 56 28 56V56Z" fill="#F5F5F5"/>
<path d="M44.4655 16.2815C44.6596 16.4763 44.7687 16.7401 44.7687 17.0151C44.7687 17.2901 44.6596 17.5539 44.4655 17.7487L42.298 19.9182L38.1417 15.762L40.3092 13.5924C40.5041 13.3976 40.7683 13.2882 41.0438 13.2882C41.3194 13.2882 41.5836 13.3976 41.7785 13.5924L44.4655 16.2794V16.2815ZM40.8288 21.3854L36.6725 17.2292L22.5142 31.3895C22.3999 31.5038 22.3138 31.6433 22.2628 31.7968L20.5899 36.8134C20.5596 36.9049 20.5553 37.0029 20.5775 37.0967C20.5997 37.1905 20.6475 37.2762 20.7156 37.3443C20.7838 37.4125 20.8695 37.4603 20.9633 37.4825C21.057 37.5047 21.1551 37.5004 21.2466 37.4701L26.2632 35.7972C26.4165 35.7468 26.5559 35.6614 26.6705 35.5478L40.8288 21.3854Z" fill="#AAAAAA"/>
<path fill-rule="evenodd" clip-rule="evenodd" d="M14.3281 40.3047C14.3281 41.1314 14.6565 41.9243 15.2411 42.5089C15.8257 43.0935 16.6186 43.4219 17.4453 43.4219H40.3047C41.1314 43.4219 41.9243 43.0935 42.5089 42.5089C43.0935 41.9243 43.4219 41.1314 43.4219 40.3047V27.8359C43.4219 27.5604 43.3124 27.2961 43.1175 27.1012C42.9227 26.9063 42.6584 26.7969 42.3828 26.7969C42.1072 26.7969 41.8429 26.9063 41.6481 27.1012C41.4532 27.2961 41.3438 27.5604 41.3438 27.8359V40.3047C41.3438 40.5803 41.2343 40.8446 41.0394 41.0394C40.8446 41.2343 40.5803 41.3438 40.3047 41.3438H17.4453C17.1697 41.3438 16.9054 41.2343 16.7106 41.0394C16.5157 40.8446 16.4062 40.5803 16.4062 40.3047V17.4453C16.4062 17.1697 16.5157 16.9054 16.7106 16.7106C16.9054 16.5157 17.1697 16.4062 17.4453 16.4062H30.9531C31.2287 16.4062 31.493 16.2968 31.6879 16.1019C31.8827 15.9071 31.9922 15.6428 31.9922 15.3672C31.9922 15.0916 31.8827 14.8273 31.6879 14.6325C31.493 14.4376 31.2287 14.3281 30.9531 14.3281H17.4453C16.6186 14.3281 15.8257 14.6565 15.2411 15.2411C14.6565 15.8257 14.3281 16.6186 14.3281 17.4453V40.3047Z" fill="#AAAAAA"/>
</svg>
