<svg width="73" height="35" viewBox="0 0 73 35" fill="none" xmlns="http://www.w3.org/2000/svg">
<g clip-path="url(#clip0_130_2238)">
<path d="M2.58749 22.5479H7.89632C9.70757 22.5479 11.2154 23.8422 11.2154 25.5917C11.2154 26.7878 10.5106 27.8947 9.4042 28.5642C10.0823 29.0283 10.4927 29.796 10.4927 30.76C10.4927 32.9024 8.44951 34.7412 6.04938 34.7412H0L2.58749 22.5479ZM4.93408 29.7424L4.50581 31.8223H5.26421C6.18322 31.8223 6.71856 31.3938 6.71856 30.7154C6.71856 30.0727 6.2546 29.7424 5.55865 29.7424H4.93408ZM5.85309 25.4757L5.45158 27.377H6.13861C6.98624 27.377 7.4502 26.9664 7.4502 26.3237C7.4502 25.7524 7.08438 25.4757 6.43305 25.4757H5.85309Z" fill="#9596FB"/>
<path d="M15.0338 31.6437H18.1477L17.4875 34.7412H10.4834L13.0798 22.5479H16.97L15.0338 31.6437Z" fill="#9596FB"/>
<path d="M26.4732 33.304H22.6008L21.8781 34.7412H18.1396L24.8314 22.5479H28.7573L30.2652 34.7412H26.5981L26.4732 33.304ZM26.1966 30.1888L25.8843 26.6986L24.1355 30.1888H26.1966Z" fill="#9596FB"/>
<path d="M37.1792 22.2891C38.1161 22.2891 39.0975 22.4765 39.7043 22.7532L39.0262 25.9221C38.6603 25.6454 38.009 25.44 37.4737 25.44C36.8313 25.44 36.403 25.7346 36.403 26.2166C36.403 27.3413 38.58 28.0644 38.58 30.6262C38.58 33.2059 36.5368 35.0001 33.6906 35.0001C32.602 35.0001 31.4243 34.7412 30.8711 34.3396L31.5492 31.1707C32.031 31.5546 32.8251 31.8491 33.3783 31.8491C34.0832 31.8491 34.672 31.385 34.672 30.8137C34.672 29.689 32.495 28.9659 32.495 26.4041C32.495 23.9672 34.4311 22.2891 37.1792 22.2891Z" fill="#9596FB"/>
<path d="M40.7218 22.5479H49.7959L49.1445 25.6453H46.5481L44.6119 34.7412H40.7218L42.6579 25.6453H40.0615L40.7218 22.5479Z" fill="#9596FB"/>
<path d="M49.1266 30.9565C50.233 30.9565 51.0093 31.6796 51.0093 32.7686C51.0093 34.0272 49.9921 35.0002 48.743 35.0002C47.6366 35.0002 46.8604 34.2771 46.8604 33.1881C46.8604 31.9206 47.8775 30.9565 49.1266 30.9565Z" fill="#9596FB"/>
<path d="M52.4815 22.5479H61.5556L60.8954 25.6453H58.2989L56.3717 34.7412H52.4815L54.4177 25.6453H51.8213L52.4815 22.5479Z" fill="#9596FB"/>
<path d="M66.9625 34.7412H62.7779L62.1533 22.5479H65.8204L65.9721 29.4479L68.979 22.5479H72.5925L66.9625 34.7412Z" fill="#9596FB"/>
<path fill-rule="evenodd" clip-rule="evenodd" d="M36.9567 0L35.083 3.90972L41.061 8.56032L36.9567 0ZM35.1365 8.63173L36.1536 10.7562L39.8207 10.4259L39.2319 9.20301L33.2539 4.55241L30.015 11.3185L34.0212 10.9526L35.1365 8.63173ZM40.9896 11.9077L44.2373 18.6917H28.3555L31.1749 12.8003L35.1811 12.4343L33.8249 15.255H38.7501L37.3046 12.2379L40.9896 11.9077Z" fill="#9596FB"/>
</g>
<defs>
<clipPath id="clip0_130_2238">
<rect width="72.5926" height="35" fill="white"/>
</clipPath>
</defs>
</svg>
