<svg width="192" height="35" viewBox="0 0 192 35" fill="none" xmlns="http://www.w3.org/2000/svg">
<path d="M128.785 1.16431C123.088 1.16431 118.008 3.62486 114.705 7.46725C113.73 6.21492 112.538 4.89946 111.236 3.97345C108.503 1.93311 104.959 1.31221 101.172 1.21024C94.7606 1.0376 89.6329 4.50119 87.2714 8.39545C85.2767 4.41561 83.4871 2.33736 76.5465 1.9921H59.7273L59.7311 9.00214C59.7311 9.00214 60.531 9.25757 60.8014 9.55435C61.027 9.80195 61.1774 10.4857 61.1774 10.4857L61.1378 26.0888C61.1378 26.0888 60.698 25.7698 60.5226 25.5654C60.1962 25.185 59.7333 24.2858 59.7333 24.2858L51.1157 1.98462L40.1889 1.9921L30.6944 26.813V21.5002H23.8617C23.3236 22.9837 21.813 23.9857 19.9908 23.9857C19.0306 23.9857 18.004 23.7592 17.1721 23.2593C16.088 22.6079 15.2779 21.8343 14.6107 20.4598C14.0859 19.1879 13.6842 17.6304 13.6377 16.2525C13.7976 13.5274 14.6256 12.556 16.1414 11.4321C16.4774 11.1829 17.4162 10.9837 17.6869 10.9824C18.2824 10.9796 18.7787 11.3408 19.0477 11.8732C19.439 12.6476 18.8663 13.5857 18.3 14.253L23.8243 18.0587L32.3564 9.13138C29.3798 4.38732 23.9407 1.2113 17.7243 1.2113C8.31281 1.2113 0.683594 8.4912 0.683594 17.4712C0.683594 26.4512 8.06867 33.2422 17.7243 33.9747L18.9452 34.0238H31.9334V34.0174H62.1729V34.0153L73.5419 33.9993V33.9811H75.3203V27.3011C75.3203 27.3011 74.3676 27.1024 73.9755 26.8354C73.5638 26.555 73.5248 26.1134 73.5248 26.1134C73.5174 25.943 73.5517 25.8125 73.6412 25.7011C73.7289 25.5918 73.9342 25.5176 74.0118 25.5013C75.1859 25.2557 76.3831 24.9198 77.5815 24.4888C80.779 23.3388 83.4697 21.7027 85.3798 19.8948C86.658 27.4467 93.2947 32.9574 101.318 33.8775C101.842 33.9376 102.294 33.983 102.784 34.0003C102.914 34.0049 103.175 33.995 103.175 33.995H114.522L114.488 28.4108C117.439 31.6868 123.188 34.827 128.992 34.827C133.734 34.827 137.987 32.7507 140.985 30.1832L140.961 34.0452H155.29L155.363 28.1367L159.099 28.1855V28.1203L164.112 28.1641V34.0238H179.394V26.2597C179.394 26.2597 178.742 26.2179 178.486 26.0397C178.141 25.7987 177.784 24.9897 177.784 24.9897L175.636 10.725C175.636 10.725 175.7 9.77074 175.977 9.41445C176.206 9.1213 176.954 8.87718 176.954 8.87718V1.99211H175.586H173.388H161.719V2.18758L160.645 5.80101L159.099 2.16408V1.99211H159.026L158.985 1.89491L158.981 1.99211H144.281V9.21898L143.277 7.85179C140.519 3.83126 135.679 1.16431 130.166 1.16431C129.941 1.16431 129.718 1.16835 129.495 1.17712C129.259 1.16861 129.023 1.16431 128.785 1.16431ZM30.5054 28.225L30.5043 28.2955H30.4402C30.4621 28.2721 30.4836 28.2485 30.5054 28.225Z" fill="#6263D5"/>
<path d="M17.7127 4.26636C9.95453 4.31519 3.61816 9.96637 3.61816 17.3589C3.61816 24.7515 10.6129 31.1016 19.0799 30.9104L27.3074 30.9336V24.4563H25.7535C25.2652 25.6776 22.985 26.8722 21.3317 26.8722C20.4605 26.8722 18.2672 26.7537 17.4558 26.4695C16.0233 25.9678 13.9793 25.2476 12.2021 22.2606C11.7259 21.2135 10.3848 18.6619 10.6844 14.9396C10.8296 12.6963 12.2545 9.89582 14.8116 8.62762C15.9266 8.07463 17.049 7.9839 19.0198 8.16274C20.4347 8.29114 21.8406 9.286 22.3315 10.48C22.7111 11.4035 22.602 12.5288 22.1551 13.1698C22.1232 13.2155 22.1225 13.256 22.1291 13.2997C22.1341 13.3329 22.1772 13.3883 22.1772 13.3883L22.956 13.9967C22.956 13.9967 23.1777 14.1507 23.4367 14.1438C23.5871 14.1398 23.856 13.9766 23.856 13.9766L28.3035 9.3093C25.5539 5.59919 20.6675 4.26636 17.7127 4.26636Z" fill="#9596FB"/>
<path d="M128.858 4.14111C120.633 4.14111 113.965 10.3277 113.965 17.9593C113.965 25.591 120.633 31.7775 128.858 31.7775C137.083 31.7775 143.75 25.591 143.75 17.9593C143.75 10.3277 137.083 4.14111 128.858 4.14111ZM128.955 8.43707C133.189 8.43707 135.458 11.4669 136.378 15.0783C136.641 16.1121 136.534 19.5493 136.377 20.6938C135.899 24.184 133.046 27.5852 128.907 27.4805C124.873 27.3785 122.175 25.5005 121.338 20.4497C121.094 18.9722 121.09 17.1973 121.289 15.7131C121.867 11.4093 124.721 8.43707 128.955 8.43707Z" fill="#9596FB"/>
<path d="M42.2328 4.99878C42.2328 4.99878 35.6929 22.6952 34.521 25.9178C33.3492 29.1405 32.0312 29.0431 32.0312 29.0431L32.1284 30.9956L40.0325 30.9935L40.0389 29.1179C40.0389 29.1179 39.5318 29.0918 39.1599 28.7505C38.4385 28.0883 38.895 26.7563 38.895 26.7563L40.7225 22.0811L48.8391 22.0982C48.8391 22.0982 50.4212 26.0485 50.8087 27.3523C51.3143 29.0534 49.7353 29.0837 49.7353 29.0837V30.9903L59.7307 30.985L59.7243 29.0997C59.7243 29.0997 59.129 29.0089 58.4959 28.4567C57.7778 27.8303 57.289 26.5384 57.289 26.5384L49.1029 5.01694L42.2328 4.99878ZM44.5795 10.4398L47.2893 17.9839L42.0406 18.0074L44.5795 10.4398Z" fill="#9596FB"/>
<path d="M62.9243 4.97119L62.8859 7.14053C62.8859 7.14053 63.5212 7.32257 64.1292 7.99716C64.4515 8.35482 64.252 12.8945 64.252 12.8945L64.2413 27.4262C64.2413 27.4262 64.4484 27.9989 63.7532 28.5744C63.4907 28.7916 63.2583 29.0219 62.8528 29.0572L62.8047 30.9905L72.0685 31.0129L72.0909 29.0465C72.0909 29.0465 71.7632 28.9173 71.2492 28.4537C70.9591 28.1921 70.7804 27.8155 70.7846 27.4401C70.7924 26.1273 70.8231 24.866 70.8166 23.5842C74.0616 22.8026 76.8629 21.4773 77.9548 21.0752C82.0594 19.4373 85.2443 16.8369 85.0578 12.1981C85.0226 8.91149 83.3556 6.21762 79.7845 5.60886C78.1566 5.1385 77.4093 5.05632 76.7671 5.02032L62.9243 4.97119ZM73.519 8.65549C74.5182 8.63631 75.6951 8.86525 76.6011 9.3216C77.7303 10.0713 78.4173 10.8479 78.4173 12.4907C78.4639 13.2631 78.242 13.9271 77.8705 14.6024C77.4836 15.2481 76.3134 16.4876 75.5745 17.1967C73.4144 18.741 72.6413 19.1937 70.9253 19.9836L70.8978 8.97449C71.8123 8.80199 72.6327 8.66137 73.519 8.65549Z" fill="#9596FB"/>
<path d="M102.087 4.28369C94.3286 4.33252 87.9922 9.9837 87.9922 17.3763C87.9922 24.7688 94.987 31.1189 103.454 30.9278L111.681 30.9509V24.4736H110.127C109.639 25.6949 107.359 26.8895 105.706 26.8895C104.835 26.8895 102.641 26.7711 101.83 26.4869C100.397 25.9852 98.3533 25.2649 96.5761 22.2779C96.0999 21.2308 94.7588 18.6792 95.0585 14.957C95.2036 12.7136 96.6286 9.91315 99.1856 8.64495C100.301 8.09197 101.423 8.00123 103.394 8.18008C104.809 8.30847 106.215 9.30333 106.705 10.4974C107.085 11.4208 106.976 12.5462 106.529 13.1871C106.497 13.2329 106.497 13.2734 106.503 13.317C106.508 13.3503 106.551 13.4056 106.551 13.4056L107.33 14.014C107.33 14.014 107.552 14.168 107.811 14.1611C107.961 14.1571 108.23 13.994 108.23 13.994L112.678 9.32663C109.928 5.61653 105.042 4.28369 102.087 4.28369Z" fill="#9596FB"/>
<path d="M147.472 5.02246L147.481 6.88632C147.481 6.88632 148.296 7.10573 148.62 7.36163C148.99 7.6542 148.896 8.1734 148.896 8.1734C148.896 8.1734 145.94 26.5458 145.876 26.8868C145.807 27.2536 145.709 28.1107 145.193 28.5872C144.68 29.061 144.089 29.1565 144.089 29.1565L144.08 30.9948H152.358V29.2772C152.358 29.2772 151.684 29.2251 151.235 28.7763C150.787 28.3274 150.916 27.094 150.916 27.094L152.953 13.2138L157.096 25.1596L162.143 25.2291L166.242 12.3647L168.53 27.1624C168.53 27.1624 168.806 28.2748 168.211 28.8457C167.753 29.2851 167.089 29.3466 167.089 29.3466V31.0642H176.679L176.67 29.226C176.67 29.226 176.456 29.2994 175.911 28.8628C175.591 28.606 175.436 27.4608 175.367 27.094C175.303 26.753 172.719 8.26633 172.719 8.26633C172.719 8.26633 172.675 7.50298 173.093 7.11276C173.395 6.83151 174.013 6.56482 174.013 6.56482L173.998 5.04276L164.042 5.03101L160.399 15.5252L156.924 5.03101L147.472 5.02246Z" fill="#9596FB"/>
<path d="M185.757 1.05322C183.124 1.05322 180.989 3.18804 180.989 5.82146C180.989 8.45489 183.124 10.5897 185.757 10.5897C188.391 10.5897 190.526 8.45489 190.526 5.82146C190.526 3.18804 188.391 1.05322 185.757 1.05322ZM185.757 1.69428C188.037 1.69428 189.885 3.54209 189.885 5.82146C189.885 8.10084 188.037 9.94865 185.757 9.94865C183.478 9.94865 181.63 8.10084 181.63 5.82146C181.63 3.54209 183.478 1.69428 185.757 1.69428Z" fill="#6263D5"/>
<path d="M183.303 2.94165V8.58664H184.494V6.62985H186.076L187.385 8.61121L188.722 8.60266L187.124 6.50275C187.781 6.23487 188.245 5.57417 188.245 4.80017C188.245 3.80229 187.473 2.99075 186.513 2.96942V2.94592H184.494V2.94165H183.303ZM184.494 4.08133L186.475 4.09201C186.878 4.16035 187.145 4.20172 187.134 4.80643C187.122 5.45353 186.624 5.53976 186.475 5.54465L184.494 5.56815V4.08133Z" fill="#6263D5"/>
</svg>
