<svg width="35" height="35" viewBox="0 0 35 35" fill="none" xmlns="http://www.w3.org/2000/svg">
<g clip-path="url(#clip0_130_2215)">
<path d="M17.5008 0C7.85015 0 0 7.84973 0 17.5015C0 27.1485 7.85015 35 17.5008 35C27.1482 35 35 27.1485 35 17.5015C35 7.84973 27.1482 0 17.5008 0ZM17.5018 2.42863C25.8268 2.42863 32.5743 9.17598 32.5743 17.5006C32.5743 25.8252 25.8268 32.5726 17.5018 32.5726C9.17684 32.5726 2.42919 25.8252 2.42919 17.5006C2.42919 9.17598 9.17684 2.42863 17.5018 2.42863Z" fill="#9596FB"/>
<path d="M16.2052 16.8523H10.0886L11.4907 14.66H15.2907L16.6784 12.4757H8.2005L6.81911 14.66H8.85375L6.08301 19.0382H17.4719L21.7977 12.1698L23.3623 14.6568H22.0128L20.633 16.8523H24.7485L26.1331 19.0382H28.7588L21.7977 8.01782L16.2052 16.8523ZM10.9601 8.09908L9.58349 10.2834L18.5761 10.2802L19.9543 8.09907L10.9601 8.09908Z" fill="#9596FB"/>
<path d="M29.0088 20.3154V20.3935H29.1888V20.7759H29.2781V20.3935H29.4581V20.3154H29.0088Z" fill="#9596FB"/>
<path d="M29.9984 20.3154L29.8216 20.5895L29.6415 20.3154H29.5635V20.7743H29.6415V20.4907L29.6336 20.4413L29.6607 20.4875L29.8073 20.7185H29.8232L29.9698 20.4907L29.9905 20.4413V20.4907V20.7743H30.0701V20.3154H29.9984Z" fill="#9596FB"/>
<path d="M9.13443 23.88C9.13443 24.1588 9.03724 24.401 8.84445 24.5953C8.64847 24.7897 8.40948 24.8885 8.13224 24.8885H6.95161C6.668 24.8885 6.4306 24.7929 6.241 24.6049C6.05458 24.4169 5.95898 24.1843 5.95898 23.8975V23.4291H6.68712L6.79865 23.8624C6.84645 24.0441 6.96914 24.1349 7.1683 24.1349H7.97132C8.07329 24.1349 8.15296 24.0967 8.21669 24.0266C8.27723 23.9517 8.30751 23.8561 8.30751 23.7461V23.2299C8.30751 22.9782 8.19757 22.8476 7.97132 22.8476H6.96117C6.68712 22.8476 6.45131 22.752 6.25215 22.5592C6.05936 22.3584 5.95898 22.1195 5.95898 21.839V21.1603C5.95898 20.8879 6.05936 20.6521 6.25215 20.4545C6.45131 20.257 6.68712 20.1614 6.96117 20.1614H8.13224C8.40948 20.1614 8.64529 20.2554 8.83648 20.4402C9.02927 20.6282 9.12009 20.864 9.12009 21.1476V21.5714H8.39673L8.28839 21.1874C8.23103 21.0026 8.10516 20.9134 7.92034 20.9134H7.13006C7.0249 20.9134 6.94364 20.9516 6.8815 21.0265C6.81777 21.0982 6.78909 21.1906 6.78909 21.3053V21.7036C6.78909 21.9506 6.90222 22.0748 7.13006 22.0748H8.13224C8.40629 22.0748 8.64529 22.1736 8.83808 22.3744C9.03724 22.5735 9.13443 22.8061 9.13443 23.0802V23.88Z" fill="#9596FB"/>
<path d="M13.2652 22.1502C13.2652 22.4258 13.1632 22.6632 12.9672 22.8592C12.7681 23.0568 12.5275 23.1555 12.2518 23.1555H10.9517V24.889H10.1152V20.1619H12.2518C12.5275 20.1619 12.7681 20.2606 12.9672 20.455C13.1632 20.6494 13.2652 20.8852 13.2652 21.1576V22.1502ZM12.0877 20.925H10.9517V22.3908H12.0877L12.3299 22.2809C12.3921 22.2076 12.4223 22.1168 12.4223 22.0005V21.3122C12.4223 21.1975 12.3921 21.1098 12.3299 21.035L12.0877 20.925Z" fill="#9596FB"/>
<path d="M20.6817 24.889L19.9138 23.0408H19.1203V24.889H18.2822V20.1619H20.3742C20.6546 20.1619 20.8905 20.2606 21.0848 20.4534C21.2792 20.651 21.3796 20.8884 21.3796 21.1576V21.9813C21.3796 22.1964 21.3191 22.3908 21.2027 22.5613C21.0801 22.7333 20.9271 22.856 20.7391 22.9341L21.5708 24.889H20.6817ZM20.2165 20.925H19.1203V22.2761H20.2165L20.4475 22.1709C20.5113 22.0992 20.5399 22.0084 20.5399 21.8937V21.3106C20.5399 21.2007 20.5113 21.1098 20.4475 21.0334L20.2165 20.925Z" fill="#9596FB"/>
<path d="M25.1562 20.9242H23.9437V24.8881H23.1088V20.9242H21.9043V20.1626H25.1562V20.9242Z" fill="#9596FB"/>
<path d="M28.9449 23.88C28.9449 24.1588 28.8461 24.401 28.6549 24.5953C28.4557 24.7897 28.2183 24.8885 27.9379 24.8885H26.7573C26.4769 24.8885 26.241 24.7929 26.0483 24.6049C25.8618 24.4169 25.7646 24.1843 25.7646 23.8975V23.4291H26.4944L26.6027 23.8624C26.6537 24.0441 26.778 24.1349 26.9756 24.1349H27.7786C27.879 24.1349 27.9618 24.0967 28.0255 24.0266C28.0861 23.9517 28.1116 23.8561 28.1116 23.7461V23.2299C28.1116 22.9782 28.0032 22.8476 27.7786 22.8476H26.7716C26.4944 22.8476 26.2554 22.752 26.061 22.5592C25.8666 22.3584 25.7646 22.1195 25.7646 21.839V21.1603C25.7646 20.8879 25.8666 20.6521 26.061 20.4545C26.2554 20.257 26.4944 20.1614 26.7716 20.1614H27.9379C28.2183 20.1614 28.4525 20.2554 28.6437 20.4402C28.8333 20.6282 28.9305 20.864 28.9305 21.1476V21.5714H28.2056L28.094 21.1874C28.0367 21.0026 27.914 20.9134 27.7276 20.9134H26.9341C26.8322 20.9134 26.7461 20.9516 26.6888 21.0265C26.625 21.0982 26.5963 21.1906 26.5963 21.3053V21.7036C26.5963 21.9506 26.7095 22.0748 26.9341 22.0748H27.9379C28.2151 22.0748 28.4494 22.1736 28.6437 22.3744C28.8461 22.5735 28.9449 22.8061 28.9449 23.0802V23.88Z" fill="#9596FB"/>
<path d="M16.0951 20.9242H15.2921L15.0467 21.0341C14.9893 21.109 14.9575 21.1998 14.9575 21.3129V23.7346C14.9575 23.8461 14.9893 23.9354 15.0467 24.0102L15.2921 24.1281H16.0951L16.3373 24.0102C16.401 23.9354 16.4329 23.8461 16.4329 23.7346V21.3129C16.4329 21.1998 16.401 21.109 16.3373 21.0341L16.0951 20.9242ZM17.2662 23.8732C17.2662 24.16 17.169 24.399 16.973 24.595C16.7722 24.7877 16.5396 24.8881 16.256 24.8881H15.1264C14.8475 24.8881 14.6054 24.7877 14.4126 24.595C14.2182 24.399 14.1162 24.16 14.1162 23.8732V21.1552C14.1162 20.8875 14.2182 20.6485 14.4126 20.4542C14.6054 20.2582 14.8475 20.1626 15.1264 20.1626H16.256C16.5396 20.1626 16.7722 20.2582 16.973 20.451C17.169 20.6422 17.2662 20.8827 17.2662 21.1552V23.8732Z" fill="#9596FB"/>
</g>
<defs>
<clipPath id="clip0_130_2215">
<rect width="35" height="35" fill="white"/>
</clipPath>
</defs>
</svg>
