<svg width="110" height="35" viewBox="0 0 110 35" fill="none" xmlns="http://www.w3.org/2000/svg">
<path d="M17.8 31.7L16.2 27.6L31.6 28.4L30.9 35L17.8 31.7ZM21.5 0L0 10.2L3.3 25.5H7.7L7 14.5L7.6 14.3L10.3 25.5H14.8L14.7 12.1L15.3 11.9L17.6 25.5H22.5L23.6 9.4L24.3 9.1L25.5 25.5H31.8L34.1 3.1L21.5 0ZM106.4 31.2L100.3 30.2V29.4L106.2 29.2L106.1 27.7H98.6L98.2 31.5L104.4 32.6V33.3L97.9 33.6L97.7 35H106.8L106.4 31.2ZM48 30.6L47.9 32L50.1 32.1V33.5L45.4 33.4L45.6 29.3L52 29.2L51.9 27.7H43.6L42.9 35H52.3L52.1 30.5L48 30.6ZM87.9 33.3V32L92.3 31.9V30.5L87.8 30.4V29.1L93.7 29V27.5H85.7L85.5 35H93.9L93.8 33.5L87.9 33.3ZM81.5 35L80.7 27.6H78.6L75.5 31.1L72.4 27.6H70.3L69.6 35H72.1L72.3 30.2L75.5 33.5L78.7 30.2L78.9 35H81.5ZM70.9 0.5H65.9L65.5 23.4H71.5L70.9 0.5ZM91.3 0.5H75.7L75.1 23.4H92.4L91.3 0.5ZM86.5 18.4L81 18.6L80.7 5.1L86.5 5.3V18.4ZM110 5.5L109.4 0.5H94L94.2 4.9L99.1 5.1L99.6 23.4H105.7L103.9 5.3L110 5.5ZM56.1 23.4H62.7L58.4 13.1L61.8 11.2L59.5 0.5H42.7L42.1 5.5L45.9 5.4L44.1 23.5H50L50.2 17.7L54.4 15.4L56.1 23.4ZM50.5 5.1L55.3 5L55.9 9.6L50.3 12.2L50.5 5.1ZM63.5 35H66L64 27.6H58L56 35H58.5L58.9 33.1L63 33.2L63.5 35ZM59.3 31.7L59.8 29.3L62.2 29.2L62.7 31.6L59.3 31.7Z" fill="#9596FB"/>
</svg>
