<svg width="32" height="32" viewBox="0 0 32 32" fill="none" xmlns="http://www.w3.org/2000/svg">
<path d="M20.1561 10.8667L12.0921 11.8773L11.8041 13.216L13.3907 13.504C14.4227 13.752 14.6281 14.1227 14.4041 15.1547L11.8041 27.36C11.1241 30.5147 12.1774 32 14.6494 32C16.5694 32 18.7934 31.1147 19.8041 29.896L20.1134 28.432C19.4121 29.0507 18.3801 29.2987 17.7001 29.2987C16.7321 29.2987 16.3827 28.6187 16.6281 27.4213L20.1561 10.8667ZM20.3987 3.52C20.3987 4.45356 20.0279 5.34889 19.3678 6.00902C18.7076 6.66914 17.8123 7.04 16.8787 7.04C15.9452 7.04 15.0499 6.66914 14.3897 6.00902C13.7296 5.34889 13.3587 4.45356 13.3587 3.52C13.3587 2.58644 13.7296 1.69111 14.3897 1.03098C15.0499 0.370856 15.9452 0 16.8787 0C17.8123 0 18.7076 0.370856 19.3678 1.03098C20.0279 1.69111 20.3987 2.58644 20.3987 3.52Z" fill="#D9D9D9"/>
</svg>
