<svg width="44" height="53" viewBox="0 0 44 53" fill="none" xmlns="http://www.w3.org/2000/svg">
<path d="M22.0003 52.6666C24.9337 52.6666 27.3337 50.2666 27.3337 47.3333H16.667C16.667 50.2666 19.067 52.6666 22.0003 52.6666ZM38.0003 36.6666V23.3333C38.0003 15.1466 33.6537 8.29329 26.0003 6.47996V4.66663C26.0003 2.45329 24.2137 0.666626 22.0003 0.666626C19.787 0.666626 18.0003 2.45329 18.0003 4.66663V6.47996C10.3737 8.29329 6.00033 15.12 6.00033 23.3333V36.6666L0.666992 42V44.6666H43.3337V42L38.0003 36.6666ZM32.667 39.3333H11.3337V23.3333C11.3337 16.72 15.3603 11.3333 22.0003 11.3333C28.6403 11.3333 32.667 16.72 32.667 23.3333V39.3333Z" fill="#D9D9D9"/>
</svg>
