<svg width="32" height="32" viewBox="0 0 32 32" fill="none" xmlns="http://www.w3.org/2000/svg">
<path d="M12.3077 30.8572V22.8463C12.3077 22.2863 12.9231 21.7149 13.5385 21.7149H18.4615C19.0769 21.7149 19.6923 22.2863 19.6923 22.8577V30.8572C19.6923 31.1603 19.822 31.451 20.0528 31.6653C20.2836 31.8796 20.5967 32 20.9231 32H30.7692C31.0956 32 31.4087 31.8796 31.6395 31.6653C31.8703 31.451 32 31.1603 32 30.8572V14.8582C32.0003 14.7081 31.9687 14.5593 31.907 14.4205C31.8454 14.2817 31.7548 14.1555 31.6406 14.0491L28.3077 10.9568V3.4304C28.3077 3.12731 28.178 2.83664 27.9472 2.62233C27.7164 2.40801 27.4033 2.28761 27.0769 2.28761H24.6154C24.289 2.28761 23.9759 2.40801 23.7451 2.62233C23.5143 2.83664 23.3846 3.12731 23.3846 3.4304V6.38564L16.8714 0.335736C16.7571 0.229312 16.6212 0.144877 16.4717 0.0872658C16.3222 0.0296548 16.1619 0 16 0C15.8381 0 15.6778 0.0296548 15.5283 0.0872658C15.3788 0.144877 15.2429 0.229312 15.1286 0.335736L0.359387 14.0491C0.245167 14.1555 0.154636 14.2817 0.0929702 14.4205C0.0313045 14.5593 -0.000286891 14.7081 1.96306e-06 14.8582V30.8572C1.96306e-06 31.1603 0.129672 31.451 0.360486 31.6653C0.5913 31.8796 0.904351 32 1.23077 32H11.0769C11.4033 32 11.7164 31.8796 11.9472 31.6653C12.178 31.451 12.3077 31.1603 12.3077 30.8572Z" fill="#D9D9D9"/>
</svg>
