<svg width="32" height="32" viewBox="0 0 32 32" fill="none" xmlns="http://www.w3.org/2000/svg">
<g clip-path="url(#clip0_89_1939)">
<path d="M15.9999 0L19.3379 1.728L23.0539 2.292L24.7379 5.652L27.4119 8.292L26.7999 12L27.4119 15.708L24.7379 18.348L23.0539 21.708L19.3379 22.272L15.9999 24L12.6619 22.272L8.94589 21.708L7.26189 18.348L4.58789 15.708L5.19989 12L4.58789 8.292L7.26189 5.652L8.94589 2.292L12.6619 1.728L15.9999 0Z" fill="#D9D9D9"/>
<path d="M8 23.588V32L16 30L24 32V23.588L19.964 24.2L16 26.252L12.036 24.2L8 23.588Z" fill="#D9D9D9"/>
</g>
<defs>
<clipPath id="clip0_89_1939">
<rect width="32" height="32" fill="white"/>
</clipPath>
</defs>
</svg>
