<svg width="32" height="32" viewBox="0 0 32 32" fill="none" xmlns="http://www.w3.org/2000/svg">
<path d="M5 6.85714C4.73478 6.85714 4.48043 6.73674 4.29289 6.52241C4.10536 6.30808 4 6.01739 4 5.71429C4 5.41118 4.10536 5.12049 4.29289 4.90616C4.48043 4.69184 4.73478 4.57143 5 4.57143H27C27.2652 4.57143 27.5196 4.69184 27.7071 4.90616C27.8946 5.12049 28 5.41118 28 5.71429C28 6.01739 27.8946 6.30808 27.7071 6.52241C27.5196 6.73674 27.2652 6.85714 27 6.85714H5ZM9 2.28571C8.73478 2.28571 8.48043 2.16531 8.29289 1.95098C8.10536 1.73665 8 1.44596 8 1.14286C8 0.839753 8.10536 0.549062 8.29289 0.334735C8.48043 0.120408 8.73478 0 9 0H23C23.2652 0 23.5196 0.120408 23.7071 0.334735C23.8946 0.549062 24 0.839753 24 1.14286C24 1.44596 23.8946 1.73665 23.7071 1.95098C23.5196 2.16531 23.2652 2.28571 23 2.28571H9ZM0 28.5714C0 29.4807 0.31607 30.3528 0.87868 30.9958C1.44129 31.6388 2.20435 32 3 32H29C29.7956 32 30.5587 31.6388 31.1213 30.9958C31.6839 30.3528 32 29.4807 32 28.5714V12.5714C32 11.6621 31.6839 10.79 31.1213 10.1471C30.5587 9.50408 29.7956 9.14286 29 9.14286H3C2.20435 9.14286 1.44129 9.50408 0.87868 10.1471C0.31607 10.79 0 11.6621 0 12.5714L0 28.5714ZM12.516 13.8583C12.672 13.7594 12.8482 13.7101 13.0265 13.7153C13.2048 13.7205 13.3787 13.7802 13.53 13.888L21.53 19.6023C21.6738 19.705 21.7924 19.8479 21.8746 20.0174C21.9569 20.1869 22 20.3776 22 20.5714C22 20.7653 21.9569 20.9559 21.8746 21.1255C21.7924 21.295 21.6738 21.4378 21.53 21.5406L13.53 27.2549C13.3786 27.363 13.2047 27.4228 13.0262 27.4282C12.8478 27.4335 12.6714 27.3842 12.5152 27.2853C12.3591 27.1864 12.229 27.0416 12.1384 26.8658C12.0478 26.69 12 26.4897 12 26.2857V14.8571C12.0002 14.6532 12.0481 14.453 12.1389 14.2773C12.2296 14.1017 12.3598 13.957 12.516 13.8583Z" fill="#D9D9D9"/>
</svg>
