<svg width="56" height="56" viewBox="0 0 56 56" fill="none" xmlns="http://www.w3.org/2000/svg">
<g clip-path="url(#clip0_138_3780)">
<path d="M12.25 0C12.7141 0 13.1592 0.184374 13.4874 0.512563C13.8156 0.840752 14 1.28587 14 1.75V3.5H42V1.75C42 1.28587 42.1844 0.840752 42.5126 0.512563C42.8408 0.184374 43.2859 0 43.75 0C44.2141 0 44.6592 0.184374 44.9874 0.512563C45.3156 0.840752 45.5 1.28587 45.5 1.75V3.5H49C50.8565 3.5 52.637 4.2375 53.9497 5.55025C55.2625 6.86301 56 8.64348 56 10.5V49C56 50.8565 55.2625 52.637 53.9497 53.9497C52.637 55.2625 50.8565 56 49 56H7C5.14348 56 3.36301 55.2625 2.05025 53.9497C0.737498 52.637 0 50.8565 0 49V10.5C0 8.64348 0.737498 6.86301 2.05025 5.55025C3.36301 4.2375 5.14348 3.5 7 3.5H10.5V1.75C10.5 1.28587 10.6844 0.840752 11.0126 0.512563C11.3408 0.184374 11.7859 0 12.25 0ZM3.5 14V49C3.5 49.9283 3.86875 50.8185 4.52513 51.4749C5.1815 52.1312 6.07174 52.5 7 52.5H49C49.9283 52.5 50.8185 52.1312 51.4749 51.4749C52.1312 50.8185 52.5 49.9283 52.5 49V14H3.5Z" fill="url(#paint0_linear_138_3780)"/>
</g>
<defs>
<linearGradient id="paint0_linear_138_3780" x1="28" y1="0" x2="28" y2="56" gradientUnits="userSpaceOnUse">
<stop stop-color="#9969C4"/>
<stop offset="1" stop-color="#4E5DB6"/>
</linearGradient>
<clipPath id="clip0_138_3780">
<rect width="56" height="56" fill="white"/>
</clipPath>
</defs>
</svg>
