<svg width="56" height="56" viewBox="0 0 56 56" fill="none" xmlns="http://www.w3.org/2000/svg">
<g clip-path="url(#clip0_138_3783)">
<path d="M7.00011 21.0001C7.00011 17.1921 7.93345 13.6827 9.80011 10.4721C11.6668 7.26141 14.2241 4.72275 17.4721 2.85608C20.7201 0.989413 24.2294 0.0374134 28.0001 8.00412e-05C31.7708 -0.0372533 35.2801 0.914747 38.5281 2.85608C41.7761 4.79741 44.3334 7.33608 46.2001 10.4721C48.0668 13.6081 49.0001 17.1174 49.0001 21.0001C49.0001 22.6054 48.6081 24.4721 47.8241 26.6001C47.0401 28.7281 46.0508 30.8747 44.8561 33.0401C43.6614 35.2054 42.2988 37.4081 40.7681 39.6481C39.2374 41.8881 37.7441 43.9787 36.2881 45.9201C34.8321 47.8614 33.4694 49.5787 32.2001 51.0721C30.9308 52.5654 29.9228 53.7787 29.1761 54.7121L28.0001 56.0001C27.7014 55.7014 27.3094 55.2534 26.8241 54.6561C26.3388 54.0588 25.3494 52.8827 23.8561 51.1281C22.3628 49.3734 20.9814 47.6187 19.7121 45.8641C18.4428 44.1094 16.9681 42.0561 15.2881 39.7041C13.6081 37.3521 12.2268 35.1121 11.1441 32.9841C10.0614 30.8561 9.07211 28.7467 8.17611 26.6561C7.28011 24.5654 6.88811 22.6801 7.00011 21.0001ZM14.0001 21.0001C14.0001 24.8827 15.3628 28.1867 18.0881 30.9121C20.8134 33.6374 24.1174 35.0001 28.0001 35.0001C31.8828 35.0001 35.1868 33.6374 37.9121 30.9121C40.6374 28.1867 42.0001 24.8827 42.0001 21.0001C42.0001 17.1174 40.6374 13.8321 37.9121 11.1441C35.1868 8.45608 31.8828 7.07475 28.0001 7.00008C24.1174 6.92541 20.8134 8.30675 18.0881 11.1441C15.3628 13.9814 14.0001 17.2667 14.0001 21.0001Z" fill="url(#paint0_linear_138_3783)"/>
</g>
<defs>
<linearGradient id="paint0_linear_138_3783" x1="27.9908" y1="-0.000976563" x2="27.9908" y2="56.0001" gradientUnits="userSpaceOnUse">
<stop stop-color="#9969C4"/>
<stop offset="1" stop-color="#4E5DB6"/>
</linearGradient>
<clipPath id="clip0_138_3783">
<rect width="56" height="56" fill="white"/>
</clipPath>
</defs>
</svg>
