<svg width="56" height="56" viewBox="0 0 56 56" fill="none" xmlns="http://www.w3.org/2000/svg">
<path fill-rule="evenodd" clip-rule="evenodd" d="M5.9371 12.0584C7.10953 10.4281 9.01752 9.33325 11.2003 9.33325H44.8003C46.9832 9.33325 48.8911 10.4281 50.0636 12.0584C50.8654 13.1731 51.3337 14.5483 51.3337 16.0221V39.9776C51.3337 43.5913 48.4879 46.6666 44.8003 46.6666H11.2003C7.51282 46.6666 4.66699 43.5913 4.66699 39.9776V16.0221C4.66699 14.5482 5.13539 13.1731 5.9371 12.0584ZM11.51 13.9999L26.2732 30.2509C27.1991 31.2701 28.8016 31.2701 29.7275 30.2509L44.4907 13.9999H11.51ZM46.667 18.5445L33.1815 33.389C30.4039 36.4464 25.5968 36.4464 22.8191 33.389L9.33366 18.5445V39.9776C9.33366 41.1753 10.2487 41.9999 11.2003 41.9999H44.8003C45.7521 41.9999 46.667 41.1753 46.667 39.9776V18.5445Z" fill="url(#paint0_linear_645_3704)"/>
<defs>
<linearGradient id="paint0_linear_645_3704" x1="28.0003" y1="9.33325" x2="28.0003" y2="46.6666" gradientUnits="userSpaceOnUse">
<stop stop-color="#9969C4"/>
<stop offset="0.932292" stop-color="#4E5DB6"/>
</linearGradient>
</defs>
</svg>
