<svg width="82" height="56" viewBox="0 0 82 56" fill="none" xmlns="http://www.w3.org/2000/svg">
<path d="M76.3636 0H5.09091C3.74072 0 2.44582 0.536362 1.49109 1.49109C0.536362 2.44582 0 3.74072 0 5.09091L0 50.9091C0 52.2593 0.536362 53.5542 1.49109 54.5089C2.44582 55.4636 3.74072 56 5.09091 56H76.3636C77.7138 56 79.0087 55.4636 79.9634 54.5089C80.9182 53.5542 81.4545 52.2593 81.4545 50.9091V5.09091C81.4545 3.74072 80.9182 2.44582 79.9634 1.49109C79.0087 0.536362 77.7138 0 76.3636 0ZM69.7455 6.36364L42.8655 30.8509C42.2827 31.3876 41.5195 31.6855 40.7273 31.6855C39.9351 31.6855 39.1718 31.3876 38.5891 30.8509L11.7091 6.36364H69.7455ZM6.36364 49.6364V10.08L34.3127 35.5345C36.061 37.1445 38.3507 38.0382 40.7273 38.0382C43.1039 38.0382 45.3936 37.1445 47.1418 35.5345L75.0909 10.08V49.6364H6.36364Z" fill="url(#paint0_linear_138_3782)"/>
<defs>
<linearGradient id="paint0_linear_138_3782" x1="40.7273" y1="0" x2="40.7273" y2="56" gradientUnits="userSpaceOnUse">
<stop stop-color="#9969C4"/>
<stop offset="1" stop-color="#4E5DB6"/>
</linearGradient>
</defs>
</svg>
