<svg width="56" height="56" viewBox="0 0 56 56" fill="none" xmlns="http://www.w3.org/2000/svg">
<path d="M38.8606 0H17.1378C13.7129 0 10.9375 2.77539 10.9375 6.20025V49.7999C10.9375 53.2246 13.7129 56 17.1378 56H38.8606C42.2854 56 45.0625 53.2246 45.0625 49.7999V6.20025C45.0625 2.77539 42.2854 0 38.8606 0ZM28 52.9358C27.1147 52.9358 26.3953 52.2179 26.3953 51.331C26.3953 50.4457 27.1147 49.728 28 49.728C28.8853 49.728 29.6047 50.4458 29.6047 51.331C29.6047 52.218 28.8853 52.9358 28 52.9358ZM39.8125 46.375H16.1875V7H39.8125V46.375Z" fill="url(#paint0_linear_138_3784)"/>
<defs>
<linearGradient id="paint0_linear_138_3784" x1="28" y1="0" x2="28" y2="56" gradientUnits="userSpaceOnUse">
<stop stop-color="#9969C4"/>
<stop offset="1" stop-color="#4E5DB6"/>
</linearGradient>
</defs>
</svg>
