<svg width="56" height="56" viewBox="0 0 56 56" fill="none" xmlns="http://www.w3.org/2000/svg">
<g clip-path="url(#clip0_138_3781)">
<path d="M52.5352 3.53102C47.9201 -1.08308 27.446 -3.4272 12.0093 12.0095C-3.42748 27.4454 -1.19164 47.8122 3.42333 52.4263C8.03841 57.0423 28.6217 59.4946 44.0576 44.0578C59.4953 28.6221 57.1511 8.14708 52.5352 3.53102ZM6.31783 49.532C5.10705 48.3212 3.70038 43.485 4.23631 37.1836L18.7798 51.7262C12.0842 52.2675 7.37527 50.5885 6.31783 49.532ZM41.1632 41.1635C35.5132 46.8125 29.4617 49.5346 24.373 50.805L5.18274 31.6148C6.56677 26.2346 9.4757 20.333 14.9046 14.9049C20.3326 9.47511 26.2469 6.57974 31.6443 5.212L50.8551 24.4228C49.4874 29.8212 46.592 35.7345 41.1632 41.1635ZM51.7827 18.8352L37.231 4.2845C43.5577 3.77295 48.4181 5.20566 49.6398 6.42639C50.8615 7.64811 52.2943 12.5095 51.7827 18.8352Z" fill="url(#paint0_linear_138_3781)"/>
<path d="M34.3014 20.1119L30.7248 23.6884L27.6653 20.629L26.0105 22.2836L29.0701 25.3424L25.4935 28.919L22.434 25.8603L20.7801 27.514L23.8397 30.5737L20.2631 34.1503L17.2027 31.0906L15.5488 32.7445L23.3227 40.5184L24.9765 38.8636L21.917 35.805L25.4935 32.2276L28.5531 35.287L30.2078 33.6333L27.1483 30.5737L30.7248 26.9971L33.7844 30.0567L35.4382 28.4028L32.3787 25.3424L35.9561 21.7658L39.0157 24.8254L40.6695 23.1707L32.8966 15.3977L31.2427 17.0515L34.3014 20.1119Z" fill="url(#paint1_linear_138_3781)"/>
</g>
<defs>
<linearGradient id="paint0_linear_138_3781" x1="28" y1="0.067627" x2="28" y2="55.9324" gradientUnits="userSpaceOnUse">
<stop stop-color="#9969C4"/>
<stop offset="1" stop-color="#4E5DB6"/>
</linearGradient>
<linearGradient id="paint1_linear_138_3781" x1="28.1092" y1="15.3977" x2="28.1092" y2="40.5184" gradientUnits="userSpaceOnUse">
<stop stop-color="#9969C4"/>
<stop offset="1" stop-color="#4E5DB6"/>
</linearGradient>
<clipPath id="clip0_138_3781">
<rect width="56" height="56" fill="white"/>
</clipPath>
</defs>
</svg>
