<svg width="56" height="56" viewBox="0 0 56 56" fill="none" xmlns="http://www.w3.org/2000/svg">
<path d="M28 28C31.713 28 35.274 26.525 37.8995 23.8995C40.525 21.274 42 17.713 42 14C42 10.287 40.525 6.72601 37.8995 4.10051C35.274 1.475 31.713 0 28 0C24.287 0 20.726 1.475 18.1005 4.10051C15.475 6.72601 14 10.287 14 14C14 17.713 15.475 21.274 18.1005 23.8995C20.726 26.525 24.287 28 28 28ZM37.3333 14C37.3333 16.4754 36.35 18.8493 34.5997 20.5997C32.8493 22.35 30.4754 23.3333 28 23.3333C25.5246 23.3333 23.1507 22.35 21.4003 20.5997C19.65 18.8493 18.6667 16.4754 18.6667 14C18.6667 11.5246 19.65 9.15068 21.4003 7.40034C23.1507 5.65 25.5246 4.66667 28 4.66667C30.4754 4.66667 32.8493 5.65 34.5997 7.40034C36.35 9.15068 37.3333 11.5246 37.3333 14ZM56 51.3333C56 56 51.3333 56 51.3333 56H4.66667C4.66667 56 0 56 0 51.3333C0 46.6667 4.66667 32.6667 28 32.6667C51.3333 32.6667 56 46.6667 56 51.3333ZM51.3333 51.3147C51.3287 50.1667 50.6147 46.7133 47.4507 43.5493C44.408 40.5067 38.682 37.3333 28 37.3333C17.3133 37.3333 11.592 40.5067 8.54933 43.5493C5.38533 46.7133 4.676 50.1667 4.66667 51.3147H51.3333Z" fill="url(#paint0_linear_138_3779)"/>
<defs>
<linearGradient id="paint0_linear_138_3779" x1="28" y1="0" x2="28" y2="56" gradientUnits="userSpaceOnUse">
<stop stop-color="#9969C4"/>
<stop offset="1" stop-color="#4E5DB6"/>
</linearGradient>
</defs>
</svg>
