<svg width="56" height="56" viewBox="0 0 56 56" fill="none" xmlns="http://www.w3.org/2000/svg">
<path d="M27.9993 0.000488281C12.5351 0.00125391 0.0013125 12.5355 0 27.9998C0.0013125 43.464 12.5351 55.9983 27.9993 55.9992C43.4649 55.9983 55.9991 43.464 56 27.9998C55.9991 12.5355 43.4649 0.00125391 27.9993 0.000488281ZM10.6758 10.6761C13.2286 8.12464 16.3371 6.13982 19.8037 4.90935C18.143 6.91911 16.7587 9.49282 15.674 12.4689H9.05319C9.56506 11.846 10.1058 11.2462 10.6758 10.6761ZM7.17631 15.0939H14.831C13.8458 18.5861 13.2549 22.5133 13.1507 26.6873H3.53577C3.75966 22.4431 5.06406 18.4938 7.17631 15.0939ZM7.17631 40.9058C5.06406 37.5058 3.75966 33.5565 3.53577 29.3123H13.1598C13.2649 33.4821 13.839 37.4161 14.8229 40.9059L7.17631 40.9058ZM10.6758 45.3233C10.1058 44.7533 9.56495 44.1535 9.05308 43.5306H15.6782C16.1464 44.8184 16.6647 46.0401 17.2436 47.163C18.0042 48.6328 18.8578 49.9486 19.7973 51.0885C16.3332 49.858 13.2268 47.8732 10.6758 45.3233ZM26.6873 52.4634C26.2776 52.442 25.8704 52.4112 25.4662 52.3693C24.822 52.0806 24.1841 51.6858 23.5522 51.1705C21.6237 49.6 19.836 46.9408 18.4774 43.5306H26.6872V52.4634H26.6873ZM26.6873 40.9058H17.5615C16.5249 37.4964 15.8863 33.5436 15.7756 29.3122H26.6872V40.9058H26.6873ZM26.6873 26.6873H15.7839C15.8942 22.4534 16.5359 18.504 17.5732 15.0939H26.6874L26.6873 26.6873ZM26.6873 12.4689H18.4895C18.8296 11.6169 19.1859 10.7942 19.576 10.0413C20.7398 7.78547 22.1103 6.00649 23.5523 4.82896C24.1841 4.3138 24.822 3.91896 25.4663 3.63021C25.8705 3.58843 26.2776 3.55758 26.6874 3.53625L26.6873 12.4689ZM48.8241 15.0939C50.9364 18.4938 52.2403 22.4433 52.4642 26.6873H42.8402C42.7351 22.5175 42.161 18.5835 41.1766 15.0939H48.8241ZM45.3242 10.6761C45.8942 11.2461 46.435 11.846 46.9469 12.4689H40.3213C39.8531 11.1812 39.3344 9.9593 38.7559 8.83657C37.9955 7.36689 37.1418 6.051 36.2024 4.9111C39.6668 6.14233 42.7727 8.1265 45.3242 10.6761ZM29.3123 3.53625C29.722 3.55758 30.1292 3.58919 30.5329 3.63021C31.1771 3.91994 31.8151 4.3138 32.4474 4.82896C34.3763 6.39947 36.1635 9.0586 37.5221 12.4688H29.3123V3.53625ZM29.3123 15.0939H38.4381C39.4745 18.5032 40.1137 22.4559 40.224 26.6873H29.3123V15.0939ZM29.3123 29.3123H40.2153C40.1052 33.5462 39.4635 37.4955 38.4261 40.9059H29.3123V29.3123ZM32.4473 51.1705C31.815 51.6858 31.177 52.0797 30.5328 52.3693C30.1291 52.4104 29.7219 52.442 29.3122 52.4634V43.5308H37.5099C37.1699 44.3827 36.8135 45.2055 36.4235 45.9583C35.2599 48.2141 33.8893 49.9931 32.4473 51.1705ZM45.3242 45.3233C42.7719 47.8748 39.6625 49.8597 36.1959 51.0901C37.857 49.0803 39.2404 46.5067 40.3256 43.5306H46.9469C46.4349 44.1536 45.8942 44.7535 45.3242 45.3233ZM48.8241 40.9058H41.1681C42.1533 37.4135 42.7446 33.4855 42.8489 29.3122H52.4642C52.2403 33.5565 50.9364 37.5058 48.8241 40.9058Z" fill="url(#paint0_linear_138_3778)"/>
<defs>
<linearGradient id="paint0_linear_138_3778" x1="28" y1="0.000488281" x2="28" y2="55.9992" gradientUnits="userSpaceOnUse">
<stop stop-color="#9969C4"/>
<stop offset="1" stop-color="#4E5DB6"/>
</linearGradient>
</defs>
</svg>
