<svg width="30" height="26" viewBox="0 0 30 26" fill="none" xmlns="http://www.w3.org/2000/svg">
<path d="M9.42375 25.1882C20.745 25.1882 26.9381 15.8076 26.9381 7.68694C26.9381 7.42444 26.9381 7.15819 26.9269 6.89569C28.1326 6.02285 29.1732 4.94222 30 3.70444C28.8737 4.20103 27.6802 4.52832 26.4581 4.67569C27.7454 3.90626 28.7095 2.69563 29.1712 1.26881C27.9619 1.9853 26.6382 2.48826 25.2581 2.75569C24.3303 1.76761 23.1026 1.11303 21.7652 0.89336C20.4277 0.673684 19.0551 0.901167 17.86 1.54057C16.6649 2.17998 15.714 3.19562 15.1546 4.43018C14.5952 5.66474 14.4585 7.04931 14.7656 8.36944C12.3183 8.24672 9.92403 7.61094 7.7382 6.50333C5.55238 5.39572 3.62378 3.84102 2.0775 1.94006C1.29251 3.29584 1.05295 4.89957 1.40746 6.42556C1.76197 7.95156 2.68398 9.28543 3.98625 10.1563C3.01039 10.1232 2.05598 9.86111 1.2 9.39131V9.47569C1.20168 10.896 1.6937 12.2721 2.59289 13.3715C3.49208 14.4709 4.74328 15.2261 6.135 15.5094C5.60674 15.655 5.06106 15.7275 4.51312 15.7251C4.12684 15.7262 3.74134 15.6904 3.36188 15.6182C3.75522 16.8408 4.52114 17.9097 5.55234 18.6753C6.58354 19.4409 7.82838 19.8648 9.1125 19.8876C6.93104 21.6009 4.23638 22.5302 1.4625 22.5257C0.973726 22.5278 0.485293 22.4996 0 22.4413C2.81534 24.2362 6.08493 25.1892 9.42375 25.1882Z" fill="url(#paint0_linear_120_2079)"/>
<defs>
<linearGradient id="paint0_linear_120_2079" x1="15" y1="0.81189" x2="15" y2="25.1882" gradientUnits="userSpaceOnUse">
<stop stop-color="#9969C4"/>
<stop offset="1" stop-color="#4E5DB6"/>
</linearGradient>
</defs>
</svg>
