<svg width="48" height="48" viewBox="0 0 48 48" fill="none" xmlns="http://www.w3.org/2000/svg">
<path d="M24.0011 39.5682L11.1919 47.7283C10.8924 47.9193 10.5456 48.0133 10.1952 47.9985C9.84476 47.9836 9.50638 47.8606 9.22257 47.6448C8.93876 47.429 8.72221 47.1301 8.60016 46.7857C8.47811 46.4413 8.45601 46.0668 8.53664 45.7093L11.9885 30.4247L0.618316 20.1861C0.352535 19.9466 0.160307 19.6301 0.0658013 19.2764C-0.0287039 18.9227 -0.0212666 18.5476 0.0871781 18.1984C0.195623 17.8491 0.400233 17.5412 0.675281 17.3134C0.950329 17.0856 1.28353 16.9481 1.633 16.9181L16.5759 15.6343L22.3605 1.1443C22.4958 0.805351 22.7237 0.515861 23.0156 0.31225C23.3075 0.108639 23.6504 0 24.0011 0C24.3518 0 24.6947 0.108639 24.9866 0.31225C25.2785 0.515861 25.5064 0.805351 25.6416 1.1443L31.4263 15.6343L46.3692 16.9181C46.7184 16.9485 47.0513 17.0864 47.326 17.3143C47.6008 17.5423 47.805 17.8502 47.9132 18.1994C48.0214 18.5486 48.0286 18.9235 47.934 19.2769C47.8394 19.6304 47.6472 19.9467 47.3815 20.1861L36.0137 30.4247L39.4655 45.7093C39.5462 46.0668 39.5241 46.4413 39.402 46.7857C39.28 47.1301 39.0634 47.429 38.7796 47.6448C38.4958 47.8606 38.1574 47.9836 37.807 47.9985C37.4566 48.0133 37.1098 47.9193 36.8103 47.7283L24.0011 39.5682Z" fill="url(#paint0_linear_138_3943)"/>
<defs>
<linearGradient id="paint0_linear_138_3943" x1="24" y1="0" x2="24" y2="48" gradientUnits="userSpaceOnUse">
<stop stop-color="#9969C4"/>
<stop offset="1" stop-color="#4E5DB6"/>
</linearGradient>
</defs>
</svg>
