<svg width="25" height="16" viewBox="0 0 25 16" fill="none" xmlns="http://www.w3.org/2000/svg">
<path fill-rule="evenodd" clip-rule="evenodd" d="M0 3.27779C0 2.44285 0.32924 1.6421 0.915291 1.05171C1.50134 0.461317 2.2962 0.129639 3.125 0.129639H14.8438C15.6017 0.129549 16.3339 0.406979 16.9039 0.910266C17.4739 1.41355 17.8429 2.10839 17.9422 2.86538L22.8016 0.690009C23.0394 0.583242 23.3 0.538054 23.5596 0.558551C23.8192 0.579048 24.0696 0.664582 24.288 0.807376C24.5065 0.95017 24.686 1.1457 24.8104 1.37619C24.9347 1.60667 24.9999 1.86481 25 2.12714V13.8729C24.9998 14.135 24.9346 14.3929 24.8103 14.6232C24.6861 14.8535 24.5067 15.0489 24.2885 15.1917C24.0702 15.3344 23.8201 15.42 23.5607 15.4407C23.3013 15.4613 23.0409 15.4164 22.8031 15.31L17.9422 13.1346C17.8429 13.8916 17.4739 14.5865 16.9039 15.0898C16.3339 15.593 15.6017 15.8705 14.8438 15.8704H3.125C2.2962 15.8704 1.50134 15.5387 0.915291 14.9483C0.32924 14.3579 0 13.5572 0 12.7222V3.27779Z" fill="#9596FB"/>
</svg>
