<svg width="25" height="26" viewBox="0 0 25 26" fill="none" xmlns="http://www.w3.org/2000/svg">
<path d="M9.375 2.0625V6.75H1.5625V2.0625H9.375ZM1.5625 0.5C1.1481 0.5 0.750671 0.66462 0.457646 0.957646C0.16462 1.25067 0 1.6481 0 2.0625L0 6.75C0 7.1644 0.16462 7.56183 0.457646 7.85485C0.750671 8.14788 1.1481 8.3125 1.5625 8.3125H9.375C9.7894 8.3125 10.1868 8.14788 10.4799 7.85485C10.7729 7.56183 10.9375 7.1644 10.9375 6.75V2.0625C10.9375 1.6481 10.7729 1.25067 10.4799 0.957646C10.1868 0.66462 9.7894 0.5 9.375 0.5H1.5625ZM23.4375 19.25V23.9375H15.625V19.25H23.4375ZM15.625 17.6875C15.2106 17.6875 14.8132 17.8521 14.5201 18.1451C14.2271 18.4382 14.0625 18.8356 14.0625 19.25V23.9375C14.0625 24.3519 14.2271 24.7493 14.5201 25.0424C14.8132 25.3354 15.2106 25.5 15.625 25.5H23.4375C23.8519 25.5 24.2493 25.3354 24.5424 25.0424C24.8354 24.7493 25 24.3519 25 23.9375V19.25C25 18.8356 24.8354 18.4382 24.5424 18.1451C24.2493 17.8521 23.8519 17.6875 23.4375 17.6875H15.625ZM9.375 13V23.9375H1.5625V13H9.375ZM1.5625 11.4375C1.1481 11.4375 0.750671 11.6021 0.457646 11.8951C0.16462 12.1882 0 12.5856 0 13L0 23.9375C0 24.3519 0.16462 24.7493 0.457646 25.0424C0.750671 25.3354 1.1481 25.5 1.5625 25.5H9.375C9.7894 25.5 10.1868 25.3354 10.4799 25.0424C10.7729 24.7493 10.9375 24.3519 10.9375 23.9375V13C10.9375 12.5856 10.7729 12.1882 10.4799 11.8951C10.1868 11.6021 9.7894 11.4375 9.375 11.4375H1.5625ZM23.4375 2.0625V13H15.625V2.0625H23.4375ZM15.625 0.5C15.2106 0.5 14.8132 0.66462 14.5201 0.957646C14.2271 1.25067 14.0625 1.6481 14.0625 2.0625V13C14.0625 13.4144 14.2271 13.8118 14.5201 14.1049C14.8132 14.3979 15.2106 14.5625 15.625 14.5625H23.4375C23.8519 14.5625 24.2493 14.3979 24.5424 14.1049C24.8354 13.8118 25 13.4144 25 13V2.0625C25 1.6481 24.8354 1.25067 24.5424 0.957646C24.2493 0.66462 23.8519 0.5 23.4375 0.5H15.625Z" fill="url(#paint0_linear_78_1083)"/>
<defs>
<linearGradient id="paint0_linear_78_1083" x1="12.5" y1="0.5" x2="12.5" y2="25.5" gradientUnits="userSpaceOnUse">
<stop stop-color="#9969C4"/>
<stop offset="1" stop-color="#4E5DB6"/>
</linearGradient>
</defs>
</svg>
