<svg width="64" height="64" viewBox="0 0 64 64" fill="none" xmlns="http://www.w3.org/2000/svg">
<g clip-path="url(#clip0_1075_5146)">
<path d="M40 7.99992C40.0005 9.77384 39.4113 11.4976 38.3252 12.9001C37.2391 14.3027 35.7176 15.3044 34 15.7479V36.0959C37.452 36.4279 40 37.6039 40 38.9999C40 40.6559 36.42 41.9999 32 41.9999C27.58 41.9999 24 40.6559 24 38.9999C24 37.5999 26.548 36.4279 30 36.0959V15.7479C28.5513 15.3739 27.2366 14.6011 26.2051 13.5173C25.1736 12.4335 24.4667 11.0822 24.1647 9.6168C23.8627 8.15142 23.9776 6.63071 24.4966 5.22739C25.0155 3.82407 25.9175 2.5944 27.1002 1.67802C28.2829 0.761653 29.6989 0.195316 31.1874 0.0433365C32.6758 -0.108642 34.1771 0.159828 35.5206 0.818256C36.8641 1.47668 37.996 2.49868 38.7879 3.76816C39.5797 5.03765 39.9996 6.50374 40 7.99992Z" fill="url(#paint0_linear_1075_5146)"/>
<path d="M6.052e-10 38.6601V45.5281C0.000396595 46.2708 0.207532 46.9986 0.598209 47.6302C0.988886 48.2618 1.54768 48.7721 2.212 49.1041L28.424 62.2121C29.5344 62.767 30.7587 63.0558 32 63.0558C33.2413 63.0558 34.4656 62.767 35.576 62.2121L61.788 49.1041C62.4523 48.7721 63.0111 48.2618 63.4018 47.6302C63.7925 46.9986 63.9996 46.2708 64 45.5281V38.6601C64 38.2601 63.76 37.9001 63.392 37.7401L38 26.8601V30.8321L58.908 39.5441C58.9984 39.5821 59.0756 39.6459 59.13 39.7274C59.1844 39.809 59.2136 39.9047 59.214 40.0028C59.2145 40.1008 59.1861 40.1968 59.1324 40.2788C59.0787 40.3609 59.002 40.4253 58.912 40.4641L35.152 50.6481C34.156 51.0751 33.0837 51.2952 32 51.2952C30.9163 51.2952 29.844 51.0751 28.848 50.6481L5.088 40.4641C4.99797 40.4253 4.92134 40.3609 4.86763 40.2788C4.81393 40.1968 4.78553 40.1008 4.78595 40.0028C4.78638 39.9047 4.81562 39.809 4.87003 39.7274C4.92445 39.6459 5.00164 39.5821 5.092 39.5441L26 30.8321L25.948 26.8801L0.608 37.7401C0.427626 37.817 0.273825 37.9451 0.165724 38.1087C0.0576236 38.2723 -6.81917e-06 38.464 6.052e-10 38.6601Z" fill="url(#paint1_linear_1075_5146)"/>
</g>
<defs>
<linearGradient id="paint0_linear_1075_5146" x1="32" y1="0.00195312" x2="32" y2="41.9999" gradientUnits="userSpaceOnUse">
<stop stop-color="#9969C4"/>
<stop offset="0.932292" stop-color="#4E5DB6"/>
</linearGradient>
<linearGradient id="paint1_linear_1075_5146" x1="32" y1="26.8601" x2="32" y2="63.0558" gradientUnits="userSpaceOnUse">
<stop stop-color="#9969C4"/>
<stop offset="0.932292" stop-color="#4E5DB6"/>
</linearGradient>
<clipPath id="clip0_1075_5146">
<rect width="64" height="64" fill="white"/>
</clipPath>
</defs>
</svg>
