<svg width="16" height="26" viewBox="0 0 16 26" fill="none" xmlns="http://www.w3.org/2000/svg">
<path d="M4.31198 1.06021C4.35959 0.898219 4.4584 0.756016 4.59361 0.654893C4.72881 0.553769 4.89314 0.499169 5.06198 0.499268H11.312C11.4357 0.499362 11.5576 0.528839 11.6677 0.585274C11.7778 0.641709 11.873 0.723488 11.9453 0.823877C12.0176 0.924267 12.065 1.0404 12.0837 1.16271C12.1024 1.28502 12.0917 1.41001 12.0526 1.52739L9.27136 9.87427H15.2182C15.3645 9.87417 15.5079 9.91515 15.6321 9.99255C15.7562 10.0699 15.8562 10.1807 15.9205 10.3121C15.9848 10.4435 16.0109 10.5903 15.9959 10.7358C15.9808 10.8813 15.9252 11.0197 15.8354 11.1352L4.89792 25.1977C4.78587 25.3425 4.62655 25.4433 4.44776 25.4826C4.26897 25.5218 4.08207 25.4971 3.91966 25.4126C3.75726 25.3282 3.62967 25.1894 3.55916 25.0204C3.48864 24.8515 3.47969 24.6632 3.53386 24.4883L6.34792 15.343H1.15573C1.03427 15.3431 0.914464 15.3148 0.80583 15.2605C0.697197 15.2062 0.602726 15.1273 0.529922 15.0301C0.457118 14.9328 0.407986 14.82 0.386428 14.7004C0.36487 14.5809 0.371479 14.458 0.405731 14.3415L4.31198 1.06021Z" fill="#9596FB"/>
</svg>
