<svg width="25" height="26" viewBox="0 0 25 26" fill="none" xmlns="http://www.w3.org/2000/svg">
<path d="M17.1875 9.875C17.1875 11.1182 16.6936 12.3105 15.8146 13.1896C14.9355 14.0686 13.7432 14.5625 12.5 14.5625C11.2568 14.5625 10.0645 14.0686 9.18544 13.1896C8.30636 12.3105 7.8125 11.1182 7.8125 9.875C7.8125 8.6318 8.30636 7.43951 9.18544 6.56044C10.0645 5.68136 11.2568 5.1875 12.5 5.1875C13.7432 5.1875 14.9355 5.68136 15.8146 6.56044C16.6936 7.43951 17.1875 8.6318 17.1875 9.875Z" fill="#9596FB"/>
<path fill-rule="evenodd" clip-rule="evenodd" d="M0 13C0 9.68479 1.31696 6.50537 3.66117 4.16117C6.00537 1.81696 9.18479 0.5 12.5 0.5C15.8152 0.5 18.9946 1.81696 21.3388 4.16117C23.683 6.50537 25 9.68479 25 13C25 16.3152 23.683 19.4946 21.3388 21.8388C18.9946 24.183 15.8152 25.5 12.5 25.5C9.18479 25.5 6.00537 24.183 3.66117 21.8388C1.31696 19.4946 0 16.3152 0 13ZM12.5 2.0625C10.4403 2.06261 8.42245 2.64432 6.67875 3.74067C4.93506 4.83702 3.53638 6.40345 2.64369 8.25968C1.75101 10.1159 1.4006 12.1865 1.63281 14.2331C1.86502 16.2796 2.6704 18.2191 3.95625 19.8281C5.06563 18.0406 7.50781 16.125 12.5 16.125C17.4922 16.125 19.9328 18.0391 21.0438 19.8281C22.3296 18.2191 23.135 16.2796 23.3672 14.2331C23.5994 12.1865 23.249 10.1159 22.3563 8.25968C21.4636 6.40345 20.0649 4.83702 18.3212 3.74067C16.5776 2.64432 14.5597 2.06261 12.5 2.0625Z" fill="#9596FB"/>
</svg>
