<svg width="89" height="56" viewBox="0 0 89 56" fill="none" xmlns="http://www.w3.org/2000/svg">
<path fill-rule="evenodd" clip-rule="evenodd" d="M0 11.2C0 8.22958 1.17132 5.38081 3.25628 3.2804C5.34125 1.18 8.16906 7.75668e-08 11.1176 7.75668e-08H52.8088C55.5054 -0.000319469 58.1101 0.986679 60.138 2.7772C62.1659 4.56771 63.4787 7.03969 63.832 9.7328L81.1199 1.9936C81.9661 1.61376 82.8931 1.453 83.8167 1.52592C84.7403 1.59884 85.6311 1.90314 86.4082 2.41115C87.1854 2.91916 87.8241 3.61478 88.2665 4.43477C88.7089 5.25477 88.9408 6.17314 88.9412 7.1064V48.8936C88.9404 49.8261 88.7084 50.7437 88.2663 51.563C87.8243 52.3824 87.1861 53.0775 86.4098 53.5854C85.6334 54.0932 84.7434 54.3978 83.8206 54.4713C82.8978 54.5448 81.9714 54.385 81.1255 54.0064L63.832 46.2672C63.4787 48.9603 62.1659 51.4323 60.138 53.2228C58.1101 55.0133 55.5054 56.0003 52.8088 56H11.1176C8.16906 56 5.34125 54.82 3.25628 52.7196C1.17132 50.6192 0 47.7704 0 44.8V11.2Z" fill="url(#paint0_linear_138_4642)"/>
<defs>
<linearGradient id="paint0_linear_138_4642" x1="44.4706" y1="0" x2="44.4706" y2="56" gradientUnits="userSpaceOnUse">
<stop stop-color="#9969C4"/>
<stop offset="1" stop-color="#4E5DB6"/>
</linearGradient>
</defs>
</svg>
