<svg width="25" height="18" viewBox="0 0 25 18" fill="none" xmlns="http://www.w3.org/2000/svg">
<path d="M16.4062 9C16.4062 10.036 15.9947 11.0296 15.2621 11.7621C14.5296 12.4947 13.536 12.9062 12.5 12.9062C11.464 12.9062 10.4704 12.4947 9.73786 11.7621C9.0053 11.0296 8.59375 10.036 8.59375 9C8.59375 7.964 9.0053 6.97043 9.73786 6.23786C10.4704 5.5053 11.464 5.09375 12.5 5.09375C13.536 5.09375 14.5296 5.5053 15.2621 6.23786C15.9947 6.97043 16.4062 7.964 16.4062 9Z" fill="url(#paint0_linear_78_1178)"/>
<path d="M0 9C0 9 4.6875 0.40625 12.5 0.40625C20.3125 0.40625 25 9 25 9C25 9 20.3125 17.5938 12.5 17.5938C4.6875 17.5938 0 9 0 9ZM12.5 14.4688C13.9504 14.4688 15.3414 13.8926 16.367 12.867C17.3926 11.8414 17.9688 10.4504 17.9688 9C17.9688 7.5496 17.3926 6.1586 16.367 5.13301C15.3414 4.10742 13.9504 3.53125 12.5 3.53125C11.0496 3.53125 9.6586 4.10742 8.63301 5.13301C7.60742 6.1586 7.03125 7.5496 7.03125 9C7.03125 10.4504 7.60742 11.8414 8.63301 12.867C9.6586 13.8926 11.0496 14.4687 12.5 14.4688Z" fill="url(#paint1_linear_78_1178)"/>
<defs>
<linearGradient id="paint0_linear_78_1178" x1="12.5" y1="5.09375" x2="12.5" y2="12.9062" gradientUnits="userSpaceOnUse">
<stop stop-color="#9969C4"/>
<stop offset="1" stop-color="#4E5DB6"/>
</linearGradient>
<linearGradient id="paint1_linear_78_1178" x1="12.5" y1="0.40625" x2="12.5" y2="17.5938" gradientUnits="userSpaceOnUse">
<stop stop-color="#9969C4"/>
<stop offset="1" stop-color="#4E5DB6"/>
</linearGradient>
</defs>
</svg>
