<svg width="64" height="64" viewBox="0 0 64 64" fill="none" xmlns="http://www.w3.org/2000/svg">
<path d="M0 32C0 14.3269 14.3269 0 32 0C49.6731 0 64 14.3269 64 32C64 49.6731 49.6731 64 32 64C14.3269 64 0 49.6731 0 32Z" fill="url(#paint0_linear_89_1782)"/>
<path d="M28.3077 46.8572V38.8463C28.3077 38.2863 28.9231 37.7149 29.5385 37.7149H34.4615C35.0769 37.7149 35.6923 38.2863 35.6923 38.8577V46.8572C35.6923 47.1603 35.822 47.451 36.0528 47.6653C36.2836 47.8796 36.5967 48 36.9231 48H46.7692C47.0956 48 47.4087 47.8796 47.6395 47.6653C47.8703 47.451 48 47.1603 48 46.8572V30.8582C48.0003 30.7081 47.9687 30.5593 47.907 30.4205C47.8454 30.2817 47.7548 30.1555 47.6406 30.0491L44.3077 26.9568V19.4304C44.3077 19.1273 44.178 18.8366 43.9472 18.6223C43.7164 18.408 43.4033 18.2876 43.0769 18.2876H40.6154C40.289 18.2876 39.9759 18.408 39.7451 18.6223C39.5143 18.8366 39.3846 19.1273 39.3846 19.4304V22.3856L32.8714 16.3357C32.7571 16.2293 32.6212 16.1449 32.4717 16.0873C32.3222 16.0297 32.1619 16 32 16C31.8381 16 31.6778 16.0297 31.5283 16.0873C31.3788 16.1449 31.2429 16.2293 31.1286 16.3357L16.3594 30.0491C16.2452 30.1555 16.1546 30.2817 16.093 30.4205C16.0313 30.5593 15.9997 30.7081 16 30.8582V46.8572C16 47.1603 16.1297 47.451 16.3605 47.6653C16.5913 47.8796 16.9044 48 17.2308 48H27.0769C27.4033 48 27.7164 47.8796 27.9472 47.6653C28.178 47.451 28.3077 47.1603 28.3077 46.8572Z" fill="#F5F5F5"/>
<defs>
<linearGradient id="paint0_linear_89_1782" x1="32" y1="0" x2="32" y2="64" gradientUnits="userSpaceOnUse">
<stop stop-color="#9969C4"/>
<stop offset="1" stop-color="#4E5DB6"/>
</linearGradient>
</defs>
</svg>
