<svg width="64" height="64" viewBox="0 0 64 64" fill="none" xmlns="http://www.w3.org/2000/svg">
<path d="M0 32C0 14.3269 14.3269 0 32 0C49.6731 0 64 14.3269 64 32C64 49.6731 49.6731 64 32 64C14.3269 64 0 49.6731 0 32Z" fill="url(#paint0_linear_89_1803)"/>
<path d="M21 22.8571C20.7348 22.8571 20.4804 22.7367 20.2929 22.5224C20.1054 22.3081 20 22.0174 20 21.7143C20 21.4112 20.1054 21.1205 20.2929 20.9062C20.4804 20.6918 20.7348 20.5714 21 20.5714H43C43.2652 20.5714 43.5196 20.6918 43.7071 20.9062C43.8946 21.1205 44 21.4112 44 21.7143C44 22.0174 43.8946 22.3081 43.7071 22.5224C43.5196 22.7367 43.2652 22.8571 43 22.8571H21ZM25 18.2857C24.7348 18.2857 24.4804 18.1653 24.2929 17.951C24.1054 17.7367 24 17.446 24 17.1429C24 16.8398 24.1054 16.5491 24.2929 16.3347C24.4804 16.1204 24.7348 16 25 16H39C39.2652 16 39.5196 16.1204 39.7071 16.3347C39.8946 16.5491 40 16.8398 40 17.1429C40 17.446 39.8946 17.7367 39.7071 17.951C39.5196 18.1653 39.2652 18.2857 39 18.2857H25ZM16 44.5714C16 45.4807 16.3161 46.3528 16.8787 46.9958C17.4413 47.6388 18.2044 48 19 48H45C45.7956 48 46.5587 47.6388 47.1213 46.9958C47.6839 46.3528 48 45.4807 48 44.5714V28.5714C48 27.6621 47.6839 26.79 47.1213 26.1471C46.5587 25.5041 45.7956 25.1429 45 25.1429H19C18.2044 25.1429 17.4413 25.5041 16.8787 26.1471C16.3161 26.79 16 27.6621 16 28.5714V44.5714ZM28.516 29.8583C28.672 29.7594 28.8482 29.7101 29.0265 29.7153C29.2048 29.7205 29.3787 29.7802 29.53 29.888L37.53 35.6023C37.6738 35.705 37.7924 35.8479 37.8746 36.0174C37.9569 36.1869 38 36.3776 38 36.5714C38 36.7653 37.9569 36.9559 37.8746 37.1255C37.7924 37.295 37.6738 37.4378 37.53 37.5406L29.53 43.2549C29.3786 43.363 29.2047 43.4228 29.0262 43.4282C28.8478 43.4335 28.6714 43.3842 28.5152 43.2853C28.3591 43.1864 28.229 43.0416 28.1384 42.8658C28.0478 42.69 28 42.4897 28 42.2857V30.8571C28.0002 30.6532 28.0481 30.453 28.1389 30.2773C28.2296 30.1017 28.3598 29.957 28.516 29.8583Z" fill="#F5F5F5"/>
<defs>
<linearGradient id="paint0_linear_89_1803" x1="32" y1="0" x2="32" y2="64" gradientUnits="userSpaceOnUse">
<stop stop-color="#9969C4"/>
<stop offset="1" stop-color="#4E5DB6"/>
</linearGradient>
</defs>
</svg>
