<svg width="16" height="16" viewBox="0 0 16 16" fill="none" xmlns="http://www.w3.org/2000/svg">
<path d="M9.70137 8L15.6562 2.0452C15.878 1.81881 16.0016 1.51401 16 1.19704C15.9984 0.88006 15.8718 0.576522 15.6476 0.352383C15.4235 0.128245 15.1199 0.0016163 14.803 1.53656e-05C14.486 -0.00158556 14.1812 0.12197 13.9548 0.343833L8 6.29863L2.0452 0.343833C1.81881 0.12197 1.51401 -0.00158556 1.19704 1.53656e-05C0.88006 0.0016163 0.576522 0.128245 0.352383 0.352383C0.128245 0.576522 0.0016163 0.88006 1.53656e-05 1.19704C-0.00158556 1.51401 0.12197 1.81881 0.343833 2.0452L6.29863 8L0.343833 13.9548C0.12197 14.1812 -0.00158556 14.486 1.53656e-05 14.803C0.0016163 15.1199 0.128245 15.4235 0.352383 15.6476C0.576522 15.8718 0.88006 15.9984 1.19704 16C1.51401 16.0016 1.81881 15.878 2.0452 15.6562L8 9.70137L13.9548 15.6562C14.1812 15.878 14.486 16.0016 14.803 16C15.1199 15.9984 15.4235 15.8718 15.6476 15.6476C15.8718 15.4235 15.9984 15.1199 16 14.803C16.0016 14.486 15.878 14.1812 15.6562 13.9548L9.70137 8Z" fill="#AAAAAA"/>
</svg>
