<svg width="64" height="64" viewBox="0 0 64 64" fill="none" xmlns="http://www.w3.org/2000/svg">
<g clip-path="url(#clip0_89_2090)">
<path d="M44 52C49.3043 52 54.3914 49.8929 58.1421 46.1421C61.8929 42.3914 64 37.3043 64 32C64 26.6957 61.8929 21.6086 58.1421 17.8579C54.3914 14.1071 49.3043 12 44 12L20 12C14.6957 12 9.60859 14.1071 5.85786 17.8579C2.10714 21.6086 0 26.6957 0 32C0 37.3043 2.10714 42.3914 5.85786 46.1421C9.60859 49.8929 14.6957 52 20 52L44 52ZM20 16C24.2435 16 28.3131 17.6857 31.3137 20.6863C34.3143 23.6869 36 27.7565 36 32C36 36.2435 34.3143 40.3131 31.3137 43.3137C28.3131 46.3143 24.2435 48 20 48C15.7565 48 11.6869 46.3143 8.68629 43.3137C5.68571 40.3131 4 36.2435 4 32C4 27.7565 5.68571 23.6869 8.68629 20.6863C11.6869 17.6857 15.7565 16 20 16Z" fill="url(#paint0_linear_89_2090)"/>
<circle cx="20" cy="32" r="18" fill="#F5F5F5"/>
</g>
<defs>
<linearGradient id="paint0_linear_89_2090" x1="32" y1="52" x2="32" y2="12" gradientUnits="userSpaceOnUse">
<stop stop-color="#9969C4"/>
<stop offset="1" stop-color="#4E5DB6"/>
</linearGradient>
<clipPath id="clip0_89_2090">
<rect width="64" height="64" fill="white" transform="matrix(-1 0 0 -1 64 64)"/>
</clipPath>
</defs>
</svg>
