<svg width="82" height="82" viewBox="0 0 82 82" fill="none" xmlns="http://www.w3.org/2000/svg">
<g clip-path="url(#clip0_226_3615)">
<path d="M54.9278 65.7301L46.7116 57.5088C43.5342 58.6448 40.0996 58.8552 36.8074 58.1154C33.5151 57.3757 30.5006 55.7163 28.1146 53.3303C25.7286 50.9443 24.0692 47.9298 23.3295 44.6375C22.5897 41.3453 22.8001 37.9107 23.9361 34.7333L13.4494 24.2466C4.77501 31.9589 0 40.725 0 40.725C0 40.725 15.2719 68.7234 40.725 68.7234C45.6141 68.7065 50.4478 67.6877 54.9278 65.7301ZM26.5222 15.7199C31.0022 13.7621 35.8359 12.7434 40.725 12.7266C66.1781 12.7266 81.45 40.725 81.45 40.725C81.45 40.725 76.6699 49.486 68.0057 57.2084L57.5088 46.7116C58.6448 43.5342 58.8552 40.0996 58.1154 36.8074C57.3757 33.5151 55.7163 30.5006 53.3303 28.1146C50.9443 25.7286 47.9298 24.0692 44.6375 23.3295C41.3453 22.5897 37.9107 22.8001 34.7333 23.9361L26.5222 15.7199Z" fill="url(#paint0_linear_226_3615)"/>
<path d="M28.1254 38.9229C27.8454 40.8793 28.0249 42.874 28.6496 44.749C29.2743 46.624 30.3271 48.3277 31.7246 49.7252C33.122 51.1226 34.8258 52.1754 36.7007 52.8001C38.5757 53.4248 40.5704 53.6043 42.5268 53.3243L28.1254 38.9229ZM53.324 42.5271L38.9227 28.1206C40.879 27.8406 42.8737 28.02 44.7487 28.6447C46.6237 29.2695 48.3274 30.3223 49.7249 31.7197C51.1224 33.1172 52.1752 34.8209 52.7999 36.6959C53.4246 38.5709 53.6041 40.5656 53.324 42.522V42.5271ZM69.4664 73.0708L8.37891 11.9833L11.9831 8.37915L73.0706 69.4667L69.4664 73.0708Z" fill="url(#paint1_linear_226_3615)"/>
</g>
<defs>
<linearGradient id="paint0_linear_226_3615" x1="40.725" y1="12.7266" x2="40.725" y2="68.7234" gradientUnits="userSpaceOnUse">
<stop stop-color="#9969C4"/>
<stop offset="0.932292" stop-color="#4E5DB6"/>
</linearGradient>
<linearGradient id="paint1_linear_226_3615" x1="40.7247" y1="8.37915" x2="40.7247" y2="73.0708" gradientUnits="userSpaceOnUse">
<stop stop-color="#9969C4"/>
<stop offset="0.932292" stop-color="#4E5DB6"/>
</linearGradient>
<clipPath id="clip0_226_3615">
<rect width="81.45" height="81.45" fill="white"/>
</clipPath>
</defs>
</svg>
