<svg width="64" height="64" viewBox="0 0 64 64" fill="none" xmlns="http://www.w3.org/2000/svg">
<path d="M20 12C14.6957 12 9.60859 14.1071 5.85786 17.8579C2.10714 21.6086 0 26.6957 0 32C0 37.3043 2.10714 42.3914 5.85786 46.1421C9.60859 49.8929 14.6957 52 20 52H44C49.3043 52 54.3914 49.8929 58.1421 46.1421C61.8929 42.3914 64 37.3043 64 32C64 26.6957 61.8929 21.6086 58.1421 17.8579C54.3914 14.1071 49.3043 12 44 12H20ZM44 48C39.7565 48 35.6869 46.3143 32.6863 43.3137C29.6857 40.3131 28 36.2435 28 32C28 27.7565 29.6857 23.6869 32.6863 20.6863C35.6869 17.6857 39.7565 16 44 16C48.2435 16 52.3131 17.6857 55.3137 20.6863C58.3143 23.6869 60 27.7565 60 32C60 36.2435 58.3143 40.3131 55.3137 43.3137C52.3131 46.3143 48.2435 48 44 48Z" fill="#F5F5F5"/>
<circle cx="44" cy="32" r="18" fill="url(#paint0_linear_89_2088)"/>
<defs>
<linearGradient id="paint0_linear_89_2088" x1="44" y1="14" x2="44" y2="50" gradientUnits="userSpaceOnUse">
<stop stop-color="#9969C4"/>
<stop offset="1" stop-color="#4E5DB6"/>
</linearGradient>
</defs>
</svg>
