<svg width="25" height="25" viewBox="0 0 56 53" fill="blue" xmlns="http://www.w3.org/2000/svg">
<path d="M28.0005 9.61846L25.4909 7.03888C19.6002 0.9837 8.7989 3.07326 4.89978 10.686C3.06923 14.2666 2.65621 19.4363 5.99882 26.034C9.21891 32.3867 15.9181 39.9959 28.0005 48.2841C40.0829 39.9959 46.7786 32.3867 50.0022 26.034C53.3448 19.4328 52.9352 14.2666 51.1012 10.686C47.2021 3.07326 36.4007 0.9802 30.5101 7.03538L28.0005 9.61846ZM28.0005 52.5018C-25.6666 17.0387 11.4765 -10.6402 27.3845 4.00079C27.5945 4.1933 27.801 4.3928 28.0005 4.59931C28.198 4.39299 28.4035 4.1945 28.6165 4.00429C44.521 -10.6472 81.6676 17.0352 28.0005 52.5018Z" fill="#fff"/>
</svg>
