<svg width="32" height="48" viewBox="0 0 32 48" fill="none" xmlns="http://www.w3.org/2000/svg">
<path d="M16 3C17.6974 3 19.3253 3.63214 20.5255 4.75736C21.7257 5.88258 22.4 7.4087 22.4 9V21H9.6V9C9.6 7.4087 10.2743 5.88258 11.4745 4.75736C12.6747 3.63214 14.3026 3 16 3ZM25.6 21V9C25.6 6.61305 24.5886 4.32387 22.7882 2.63604C20.9879 0.948211 18.5461 0 16 0C13.4539 0 11.0121 0.948211 9.21178 2.63604C7.41143 4.32387 6.4 6.61305 6.4 9V21C4.70261 21 3.07475 21.6321 1.87452 22.7574C0.674284 23.8826 0 25.4087 0 27V42C0 43.5913 0.674284 45.1174 1.87452 46.2426C3.07475 47.3679 4.70261 48 6.4 48H25.6C27.2974 48 28.9252 47.3679 30.1255 46.2426C31.3257 45.1174 32 43.5913 32 42V27C32 25.4087 31.3257 23.8826 30.1255 22.7574C28.9252 21.6321 27.2974 21 25.6 21Z" fill="url(#paint0_linear_123_3721)"/>
<defs>
<linearGradient id="paint0_linear_123_3721" x1="16" y1="0" x2="16" y2="48" gradientUnits="userSpaceOnUse">
<stop stop-color="#9969C4"/>
<stop offset="1" stop-color="#4E5DB6"/>
</linearGradient>
</defs>
</svg>
