<svg width="45" height="56" viewBox="0 0 45 56" fill="none" xmlns="http://www.w3.org/2000/svg">
<path d="M25.1996 33.6C25.1996 32.0536 23.946 30.8 22.3996 30.8C20.8532 30.8 19.5996 32.0536 19.5996 33.6V39.2C19.5996 40.7465 20.8532 42 22.3996 42C23.946 42 25.1996 40.7465 25.1996 39.2V33.6Z" fill="#F5F5F5"/>
<path fill-rule="evenodd" clip-rule="evenodd" d="M8.4 17.137C3.68508 18.2901 0 22.2874 0 27.3538V42.8616C0 50.3244 6.48326 56 14 56H30.8C38.3169 56 44.8 50.3244 44.8 42.8616V27.3538C44.8 22.2874 41.1149 18.2901 36.4 17.137V14C36.4 6.26802 30.1319 0 22.4 0C14.668 0 8.4 6.26802 8.4 14V17.137ZM30.8 14V16.8H14V14C14 13.0182 14.1684 12.0758 14.478 11.2C15.6311 7.93747 18.7426 5.6 22.4 5.6C26.0574 5.6 29.169 7.93747 30.322 11.2C30.6314 12.0758 30.8 13.0182 30.8 14ZM5.6 27.3538C5.6 24.8248 7.89197 22.4 11.2 22.4H33.6C36.9079 22.4 39.2 24.8248 39.2 27.3538V42.8616C39.2 46.8182 35.6544 50.4 30.8 50.4H14C9.14556 50.4 5.6 46.8182 5.6 42.8616V27.3538Z" fill="#F5F5F5"/>
</svg>
