<svg width="32" height="32" viewBox="0 0 32 32" fill="none" xmlns="http://www.w3.org/2000/svg">
<path d="M8.51509 20.6864C6.57857 18.0435 5.71122 14.7668 6.08657 11.5118C6.46192 8.25676 8.05228 5.26352 10.5395 3.13088C13.0267 0.99824 16.2273 -0.11651 19.501 0.00964916C22.7747 0.135808 25.8801 1.49357 28.1958 3.8113C30.5116 6.12903 31.8669 9.2358 31.9907 12.5101C32.1145 15.7843 30.9976 18.9846 28.8635 21.4706C26.7294 23.9566 23.7354 25.5451 20.4806 25.9181C17.2258 26.2912 13.9501 25.4214 11.309 23.4827H11.311C11.251 23.5627 11.187 23.6387 11.115 23.7127L3.41528 31.4135C3.04028 31.7889 2.53156 31.9998 2.00104 32C1.47052 32.0002 0.961651 31.7896 0.586384 31.4145C0.211117 31.0395 0.000188828 30.5307 1.90735e-06 30.0001C-0.00018692 29.4695 0.210382 28.9606 0.585384 28.5852L8.2851 20.8844C8.3566 20.8121 8.43348 20.7472 8.51509 20.6864ZM7.99911 12.9976C7.99911 14.4423 8.28362 15.8729 8.8364 17.2076C9.38918 18.5423 10.1994 19.7551 11.2208 20.7766C12.2422 21.7982 13.4548 22.6085 14.7893 23.1614C16.1239 23.7142 17.5542 23.9988 18.9987 23.9988C20.4432 23.9988 21.8735 23.7142 23.2081 23.1614C24.5426 22.6085 25.7552 21.7982 26.7766 20.7766C27.798 19.7551 28.6082 18.5423 29.161 17.2076C29.7138 15.8729 29.9983 14.4423 29.9983 12.9976C29.9983 10.08 28.8394 7.28177 26.7766 5.21866C24.7138 3.15555 21.916 1.9965 18.9987 1.9965C16.0814 1.9965 13.2836 3.15555 11.2208 5.21866C9.15799 7.28177 7.99911 10.08 7.99911 12.9976Z" fill="url(#paint0_linear_130_4107)"/>
<defs>
<linearGradient id="paint0_linear_130_4107" x1="16" y1="0" x2="16" y2="32" gradientUnits="userSpaceOnUse">
<stop stop-color="#9969C4"/>
<stop offset="1" stop-color="#4E5DB6"/>
</linearGradient>
</defs>
</svg>
