<svg width="25" height="25" viewBox="0 0 48 48" fill="none" xmlns="http://www.w3.org/2000/svg">
<path d="M0 38.208C0 40.576 0.832 42.592 2.496 44.256C4.16 45.92 6.176 46.752 8.544 46.752H36.96C39.296 46.752 41.296 45.92 42.96 44.256C44.624 42.592 45.456 40.576 45.456 38.208V25.92L39.792 30.672V38.208C39.792 39.008 39.52 39.68 38.976 40.224C38.432 40.768 37.76 41.056 36.96 41.088H8.544C7.744 41.088 7.072 40.8 6.528 40.224C5.984 39.648 5.712 38.976 5.712 38.208V9.79202C5.712 9.02402 5.984 8.35202 6.528 7.77602C7.072 7.20002 7.744 6.92802 8.544 6.96002H22.752V1.29602H8.544C6.176 1.29602 4.16 2.12802 2.496 3.79202C0.832 5.45602 0 7.45602 0 9.79202L0 38.208ZM8.544 29.712C8.544 32.464 9.088 35.104 10.176 37.632C10.688 34.688 11.808 32.016 13.536 29.616C15.264 27.216 17.408 25.28 19.968 23.808C22.528 22.336 25.344 21.504 28.416 21.312V29.712L45.456 15.504L28.416 1.29602V9.79202C25.728 9.79202 23.152 10.32 20.688 11.376C18.224 12.432 16.112 13.856 14.352 15.648C12.592 17.44 11.168 19.552 10.08 21.984C8.992 24.416 8.48 26.992 8.544 29.712Z" fill="#fff"/>
</svg>
