<svg width="43" height="43" viewBox="0 0 43 43" fill="none" xmlns="http://www.w3.org/2000/svg">
<path d="M21.4998 0C21.0268 0 20.5592 0.0161251 20.0943 0.0456878L20.2663 2.72783C21.0878 2.67474 21.9119 2.67474 22.7334 2.72783L22.9054 0.0456878C22.4375 0.015349 21.9687 0.000111833 21.4998 0ZM17.3073 0.408502C16.3774 0.593941 15.469 0.838505 14.5875 1.13413L15.4502 3.6819C16.2215 3.41852 17.0144 3.20621 17.826 3.04496L17.3073 0.41119V0.408502ZM28.4121 1.13682C27.5234 0.835504 26.6157 0.593102 25.6951 0.41119L25.1737 3.04496C25.9853 3.20621 26.7781 3.42121 27.5494 3.6819L28.4121 1.13682ZM33.4459 3.62277C32.6658 3.10071 31.8525 2.63028 31.011 2.21451L29.8204 4.62253C30.5595 4.98803 31.2717 5.40191 31.9516 5.8561L33.4459 3.62277ZM11.986 2.21451C11.1421 2.63108 10.3305 3.10139 9.5538 3.62277L11.0481 5.85341C11.7311 5.39749 12.443 4.98633 13.1793 4.62253L11.986 2.21451ZM7.32316 5.33472C6.61903 5.95285 5.95252 6.61935 5.33439 7.32348L7.35541 9.09724C7.89829 8.47911 8.47879 7.89861 9.09692 7.35573L7.32316 5.33472ZM37.6653 7.32348C37.0461 6.61817 36.3818 5.95385 35.6765 5.33472L33.9027 7.35573C34.5209 7.89861 35.1041 8.47911 35.6443 9.09724L37.6653 7.32348ZM40.7855 11.9863C40.3697 11.1457 39.8993 10.3332 39.3772 9.55412L37.1466 11.0484C37.6008 11.7283 38.012 12.4405 38.3775 13.1796L40.7855 11.9863ZM3.62244 9.55412C3.10106 10.3308 2.62806 11.1424 2.21418 11.989L4.6222 13.1796C4.9877 12.4405 5.40158 11.7283 5.85577 11.0484L3.62244 9.55412ZM1.13649 14.5878C0.835162 15.4766 0.59276 16.3843 0.410855 17.3049L3.04463 17.8263C3.20588 17.0147 3.42088 16.2218 3.68157 15.4505L1.13649 14.5878ZM42.5915 17.3076C42.4097 16.386 42.1673 15.4775 41.8659 14.5878L39.3181 15.4505C39.5815 16.2218 39.7938 17.0147 39.955 17.8263L42.5888 17.3049L42.5915 17.3076ZM0.0453519 20.0946C-0.0151173 21.0306 -0.0151173 21.9696 0.0453519 22.9057L2.7275 22.7337C2.6744 21.9122 2.6744 21.0881 2.7275 20.2666L0.0453519 20.0946ZM43 21.5001C42.9999 21.0312 42.9847 20.5625 42.9543 20.0946L40.2722 20.2666C40.3253 21.0881 40.3253 21.9122 40.2722 22.7337L42.9543 22.9057C42.9847 22.4378 42.9999 21.969 43 21.5001ZM0.408167 25.6927C0.593606 26.6225 0.838171 27.5309 1.1338 28.4124L3.68157 27.5497C3.41724 26.7727 3.20446 25.979 3.04463 25.174L0.410855 25.6953L0.408167 25.6927ZM41.8632 28.4124C42.1642 27.5309 42.4061 26.6225 42.5888 25.6953L39.955 25.174C39.7938 25.9856 39.5788 26.7784 39.3181 27.5497L41.8632 28.4124ZM2.21418 31.0139C2.63005 31.8545 3.10048 32.667 3.62244 33.4461L5.85309 31.9519C5.39671 31.2691 4.98553 30.5572 4.6222 29.8207L2.21418 31.0113V31.0139ZM39.3772 33.4461C39.8986 32.6694 40.3716 31.8578 40.7855 31.0113L38.3775 29.8207C38.012 30.5597 37.5981 31.2719 37.1439 31.9519L39.3772 33.4461ZM5.33439 35.6768C5.95252 36.3809 6.61903 37.0474 7.32316 37.6655L9.09692 35.6445C8.47925 35.1024 7.89751 34.5207 7.35541 33.903L5.33439 35.6768ZM35.6765 37.6655C36.3806 37.0474 37.0471 36.3809 37.6653 35.6768L35.6443 33.903C35.1041 34.5211 34.5209 35.1043 33.9027 35.6445L35.6765 37.6655ZM31.0137 40.7857C31.8575 40.3692 32.6692 39.8989 33.4459 39.3775L31.9516 37.1469C31.2685 37.6028 30.5567 38.0139 29.8204 38.3777L31.011 40.7857H31.0137ZM9.5538 39.3775C10.3305 39.8989 11.1421 40.3719 11.9887 40.7857L13.1793 38.3777C12.4427 38.0135 11.7308 37.6015 11.0481 37.1442L9.5538 39.3775ZM14.5875 41.8634C15.469 42.1644 16.3774 42.4063 17.3046 42.5891L17.826 39.9553C17.0209 39.7954 16.2273 39.5826 15.4502 39.3184L14.5875 41.8634ZM25.6924 42.5918C26.6139 42.41 27.5225 42.1676 28.4121 41.8661L27.5494 39.3184C26.7724 39.5826 25.9787 39.7954 25.1737 39.9553L25.6951 42.5891L25.6924 42.5918ZM20.0943 42.9546C21.0303 43.0151 21.9693 43.0151 22.9054 42.9546L22.7334 40.2724C21.9119 40.3256 21.0878 40.3256 20.2663 40.2724L20.0943 42.9546ZM22.8436 12.0938C22.8436 11.7374 22.702 11.3956 22.45 11.1436C22.198 10.8916 21.8562 10.7501 21.4998 10.7501C21.1434 10.7501 20.8017 10.8916 20.5497 11.1436C20.2976 11.3956 20.1561 11.7374 20.1561 12.0938V20.1564H12.0935C11.7371 20.1564 11.3953 20.2979 11.1433 20.55C10.8913 20.802 10.7497 21.1437 10.7497 21.5001C10.7497 21.8565 10.8913 22.1983 11.1433 22.4503C11.3953 22.7023 11.7371 22.8439 12.0935 22.8439H20.1561V30.9064C20.1561 31.2628 20.2976 31.6046 20.5497 31.8566C20.8017 32.1086 21.1434 32.2502 21.4998 32.2502C21.8562 32.2502 22.198 32.1086 22.45 31.8566C22.702 31.6046 22.8436 31.2628 22.8436 30.9064V22.8439H30.9062C31.2625 22.8439 31.6043 22.7023 31.8563 22.4503C32.1083 22.1983 32.2499 21.8565 32.2499 21.5001C32.2499 21.1437 32.1083 20.802 31.8563 20.55C31.6043 20.2979 31.2625 20.1564 30.9062 20.1564H22.8436V12.0938Z" fill="#F5F5F5"/>
</svg>
