<svg width="64" height="64" viewBox="0 0 64 64" fill="none" xmlns="http://www.w3.org/2000/svg">
<path d="M0 32C0 14.3269 14.3269 0 32 0C49.6731 0 64 14.3269 64 32C64 49.6731 49.6731 64 32 64C14.3269 64 0 49.6731 0 32Z" fill="#F5F5F5"/>
<path fill-rule="evenodd" clip-rule="evenodd" d="M49.998 33.2853C49.998 32.9822 49.8776 32.6915 49.6633 32.4772C49.449 32.2629 49.1583 32.1425 48.8553 32.1425H21.9016L29.0942 24.9521C29.2005 24.8458 29.2848 24.7197 29.3423 24.5809C29.3998 24.4421 29.4294 24.2933 29.4294 24.143C29.4294 23.9927 29.3998 23.844 29.3423 23.7051C29.2848 23.5663 29.2005 23.4402 29.0942 23.3339C28.988 23.2277 28.8618 23.1434 28.723 23.0859C28.5842 23.0284 28.4354 22.9988 28.2851 22.9988C28.1349 22.9988 27.9861 23.0284 27.8473 23.0859C27.7084 23.1434 27.5823 23.2277 27.4761 23.3339L18.3338 32.4762C18.2274 32.5823 18.1429 32.7085 18.0853 32.8473C18.0277 32.9861 17.998 33.135 17.998 33.2853C17.998 33.4356 18.0277 33.5844 18.0853 33.7233C18.1429 33.8621 18.2274 33.9882 18.3338 34.0944L27.4761 43.2366C27.5823 43.3429 27.7084 43.4272 27.8473 43.4847C27.9861 43.5422 28.1349 43.5718 28.2851 43.5718C28.4354 43.5718 28.5842 43.5422 28.723 43.4847C28.8618 43.4272 28.988 43.3429 29.0942 43.2366C29.2005 43.1304 29.2848 43.0043 29.3423 42.8654C29.3998 42.7266 29.4294 42.5778 29.4294 42.4276C29.4294 42.2773 29.3998 42.1285 29.3423 41.9897C29.2848 41.8509 29.2005 41.7247 29.0942 41.6185L21.9016 34.4281H48.8553C49.1583 34.4281 49.449 34.3077 49.6633 34.0934C49.8776 33.879 49.998 33.5884 49.998 33.2853Z" fill="#AAAAAA"/>
</svg>
